<svg width="192" height="48" viewBox="0 0 192 48" fill="none" xmlns="http://www.w3.org/2000/svg">
<g filter="url(#filter0_d)">
<path d="M4 20C4 8.95431 12.9543 0 24 0H168C179.046 0 188 8.95431 188 20V20C188 31.0457 179.046 40 168 40H24C12.9543 40 4 31.0457 4 20V20Z" fill="#FFE600"/>
<path d="M33.9148 22.08C34.4161 22.08 34.8588 21.9573 35.2428 21.712C35.6374 21.4667 35.9521 21.12 36.1868 20.672C36.2934 20.4907 36.4161 20.3413 36.5548 20.224C36.6934 20.096 36.8908 20.032 37.1468 20.032C37.4028 20.032 37.6428 20.128 37.8668 20.32C38.1014 20.512 38.2188 20.7573 38.2188 21.056C38.2188 21.152 38.2134 21.2427 38.2028 21.328C38.1921 21.4133 38.1601 21.52 38.1068 21.648C37.9361 22.0533 37.7014 22.416 37.4028 22.736C37.1148 23.0453 36.7841 23.312 36.4108 23.536C36.0481 23.7493 35.6534 23.9093 35.2268 24.016C34.8001 24.1333 34.3628 24.192 33.9148 24.192C33.2321 24.192 32.6081 24.0747 32.0428 23.84C31.4774 23.6053 30.9868 23.2853 30.5707 22.88C30.1548 22.4747 29.8188 21.9947 29.5628 21.44C29.3174 20.8853 29.1681 20.288 29.1148 19.648C29.0508 18.784 29.0508 17.936 29.1148 17.104C29.1681 16.464 29.3174 15.8667 29.5628 15.312C29.8188 14.7573 30.1548 14.2773 30.5707 13.872C30.9868 13.456 31.4774 13.1307 32.0428 12.896C32.6081 12.6613 33.2321 12.544 33.9148 12.544C34.3628 12.544 34.8001 12.6027 35.2268 12.72C35.6534 12.8267 36.0481 12.992 36.4108 13.216C36.7841 13.4293 37.1148 13.696 37.4028 14.016C37.7014 14.3253 37.9361 14.6827 38.1068 15.088C38.1601 15.216 38.1921 15.3227 38.2028 15.408C38.2134 15.4933 38.2188 15.584 38.2188 15.68C38.2188 15.9787 38.1014 16.224 37.8668 16.416C37.6428 16.608 37.4028 16.704 37.1468 16.704C36.8908 16.704 36.6881 16.64 36.5388 16.512C36.4001 16.3733 36.2828 16.224 36.1868 16.064C35.9521 15.616 35.6374 15.2693 35.2428 15.024C34.8588 14.7787 34.4161 14.656 33.9148 14.656C33.5308 14.656 33.1788 14.7253 32.8588 14.864C32.5494 15.0027 32.2828 15.1947 32.0588 15.44C31.8348 15.6747 31.6588 15.9573 31.5308 16.288C31.4028 16.6187 31.3228 16.9813 31.2908 17.376C31.2374 18.0587 31.2374 18.7413 31.2908 19.424C31.3441 20.224 31.6001 20.8693 32.0588 21.36C32.5174 21.84 33.1361 22.08 33.9148 22.08ZM42.4366 15.952C42.618 15.792 42.89 15.648 43.2526 15.52C43.626 15.392 44.026 15.328 44.4526 15.328C45.4766 15.328 46.2713 15.6267 46.8366 16.224C47.402 16.8107 47.6846 17.68 47.6846 18.832V22.944C47.6846 23.264 47.5833 23.536 47.3806 23.76C47.178 23.9733 46.9166 24.08 46.5966 24.08C46.298 24.08 46.0473 23.9733 45.8446 23.76C45.642 23.536 45.5406 23.264 45.5406 22.944V18.944C45.5406 18.4533 45.4126 18.08 45.1566 17.824C44.9006 17.5573 44.5486 17.424 44.1006 17.424C43.7593 17.424 43.4393 17.4933 43.1406 17.632C42.842 17.76 42.6073 17.9147 42.4366 18.096V22.976C42.4366 23.2853 42.3353 23.5467 42.1326 23.76C41.9406 23.9733 41.69 24.08 41.3806 24.08C41.082 24.08 40.826 23.9733 40.6126 23.76C40.3993 23.5467 40.2926 23.2853 40.2926 22.976V13.616C40.2926 13.3067 40.394 13.0453 40.5966 12.832C40.7993 12.6187 41.0553 12.512 41.3646 12.512C41.6633 12.512 41.914 12.6187 42.1166 12.832C42.33 13.0453 42.4366 13.3067 42.4366 13.616V15.952ZM57.0708 19.392C57.0708 19.7013 56.9854 19.9573 56.8148 20.16C56.6441 20.3627 56.3614 20.464 55.9668 20.464H51.7108V20.624C51.7108 21.136 51.8814 21.5253 52.2228 21.792C52.5641 22.048 53.0068 22.176 53.5508 22.176C53.8388 22.176 54.1268 22.144 54.4148 22.08C54.7028 22.016 54.9854 21.9307 55.2628 21.824C55.4761 21.7493 55.6681 21.7227 55.8388 21.744C56.0094 21.7653 56.1534 21.8187 56.2708 21.904C56.3988 21.9893 56.4948 22.1013 56.5588 22.24C56.6334 22.3787 56.6708 22.5227 56.6708 22.672C56.6708 22.8213 56.6334 22.976 56.5588 23.136C56.4841 23.296 56.3401 23.44 56.1268 23.568C55.8281 23.7493 55.4388 23.888 54.9588 23.984C54.4894 24.08 53.9988 24.128 53.4868 24.128C52.9321 24.128 52.4254 24.048 51.9668 23.888C51.5188 23.7173 51.1241 23.4827 50.7828 23.184C50.4521 22.8853 50.1854 22.528 49.9828 22.112C49.7908 21.696 49.6734 21.2373 49.6308 20.736C49.6094 20.4267 49.5988 20.08 49.5988 19.696C49.5988 19.3013 49.6094 18.9813 49.6308 18.736C49.6734 18.2133 49.7961 17.744 49.9988 17.328C50.2121 16.912 50.4788 16.5547 50.7988 16.256C51.1294 15.9573 51.5134 15.728 51.9508 15.568C52.3988 15.408 52.8841 15.328 53.4068 15.328C53.9508 15.328 54.4468 15.4187 54.8948 15.6C55.3428 15.7707 55.7268 16.016 56.0468 16.336C56.3774 16.656 56.6281 17.0453 56.7987 17.504C56.9801 17.9627 57.0708 18.4747 57.0708 19.04V19.392ZM54.8308 19.008C54.9481 19.008 55.0068 18.944 55.0068 18.816C55.0281 18.3253 54.8948 17.9307 54.6068 17.632C54.3294 17.3333 53.9294 17.184 53.4068 17.184C52.8308 17.184 52.4041 17.3493 52.1268 17.68C51.8494 18.0107 51.7108 18.4533 51.7108 19.008H54.8308ZM62.6118 22.08C63.3264 22.08 63.8598 21.7547 64.2118 21.104C64.3931 20.7733 64.6758 20.608 65.0598 20.608C65.3691 20.608 65.6198 20.7147 65.8118 20.928C66.0038 21.1413 66.0998 21.4027 66.0998 21.712C66.0998 21.936 66.0251 22.1867 65.8758 22.464C65.7264 22.7413 65.5024 23.008 65.2038 23.264C64.9051 23.5093 64.5318 23.7173 64.0838 23.888C63.6464 24.048 63.1344 24.128 62.5477 24.128C62.0251 24.128 61.5398 24.0427 61.0918 23.872C60.6438 23.7013 60.2544 23.4667 59.9238 23.168C59.5931 22.8587 59.3264 22.5013 59.1238 22.096C58.9211 21.68 58.7984 21.2373 58.7558 20.768C58.7344 20.4373 58.7238 20.0747 58.7238 19.68C58.7238 19.2747 58.7344 18.912 58.7558 18.592C58.7878 18.112 58.9051 17.6747 59.1078 17.28C59.3104 16.8747 59.5771 16.528 59.9078 16.24C60.2491 15.952 60.6438 15.728 61.0918 15.568C61.5398 15.408 62.0251 15.328 62.5477 15.328C63.1344 15.328 63.6464 15.4133 64.0838 15.584C64.5318 15.744 64.8998 15.9467 65.1878 16.192C65.4864 16.4267 65.7104 16.6827 65.8598 16.96C66.0091 17.2373 66.0838 17.488 66.0838 17.712C66.0838 18.0107 65.9878 18.2667 65.7958 18.48C65.6038 18.6933 65.3531 18.8 65.0438 18.8C64.6491 18.8 64.3664 18.64 64.1958 18.32C63.8544 17.6907 63.3264 17.376 62.6118 17.376C62.0891 17.376 61.6838 17.5147 61.3958 17.792C61.1078 18.0693 60.9371 18.4427 60.8838 18.912C60.8731 19.008 60.8624 19.1253 60.8518 19.264C60.8518 19.392 60.8518 19.5253 60.8518 19.664C60.8518 19.8027 60.8518 19.9413 60.8518 20.08C60.8624 20.2187 60.8731 20.3413 60.8838 20.448C60.9371 20.9173 61.1024 21.3067 61.3798 21.616C61.6678 21.9253 62.0784 22.08 62.6118 22.08ZM69.0209 12.528C69.3302 12.528 69.5862 12.6347 69.7889 12.848C69.9915 13.0613 70.0929 13.3227 70.0929 13.632V18.656H70.2689C70.4395 18.656 70.5782 18.6347 70.6849 18.592C70.7915 18.5493 70.9195 18.448 71.0689 18.288L73.5489 15.728C73.6662 15.6 73.7942 15.504 73.9329 15.44C74.0822 15.376 74.2315 15.344 74.3809 15.344C74.6902 15.344 74.9409 15.4507 75.1329 15.664C75.3249 15.8773 75.4262 16.1227 75.4369 16.4C75.4475 16.6773 75.3515 16.912 75.1489 17.104L72.6049 19.616L75.0689 22.176C75.2822 22.4107 75.3942 22.672 75.4049 22.96C75.4155 23.248 75.3142 23.5093 75.1009 23.744C75.0049 23.8507 74.8875 23.9307 74.7489 23.984C74.6209 24.0373 74.4822 24.064 74.3329 24.064C74.1835 24.064 74.0395 24.0373 73.9009 23.984C73.7622 23.92 73.6342 23.824 73.5169 23.696L71.0689 21.056C70.9195 20.8853 70.7915 20.784 70.6849 20.752C70.5782 20.7093 70.4502 20.688 70.3009 20.688H70.0929V22.976C70.0929 23.2853 69.9915 23.5467 69.7889 23.76C69.5862 23.9733 69.3302 24.08 69.0209 24.08C68.7329 24.08 68.4822 23.9733 68.2689 23.76C68.0555 23.536 67.9489 23.2747 67.9489 22.976V13.632C67.9489 13.3227 68.0502 13.0613 68.2529 12.848C68.4555 12.6347 68.7115 12.528 69.0209 12.528ZM88.2943 22.496C88.2943 22.6773 88.2676 22.8267 88.2143 22.944C88.1609 23.0507 88.0596 23.152 87.9103 23.248C87.7929 23.3227 87.6329 23.4133 87.4303 23.52C87.2383 23.616 86.9983 23.712 86.7103 23.808C86.4329 23.8933 86.1129 23.968 85.7503 24.032C85.3876 24.096 84.9823 24.128 84.5343 24.128C83.9583 24.128 83.4569 24.0533 83.0303 23.904C82.6036 23.7547 82.2516 23.552 81.9743 23.296C81.6969 23.04 81.4889 22.7413 81.3503 22.4C81.2223 22.0587 81.1583 21.696 81.1583 21.312C81.1583 20.9707 81.2169 20.6453 81.3343 20.336C81.4623 20.016 81.6596 19.7387 81.9263 19.504C82.1929 19.2587 82.5343 19.0667 82.9503 18.928C83.3663 18.7787 83.8676 18.704 84.4543 18.704C84.8063 18.704 85.1103 18.7253 85.3663 18.768C85.6329 18.8107 85.9209 18.8693 86.2303 18.944V18.512C86.2303 18.096 86.1183 17.7867 85.8943 17.584C85.6703 17.3707 85.2756 17.264 84.7103 17.264C84.4329 17.264 84.1556 17.296 83.8783 17.36C83.6116 17.4133 83.3769 17.472 83.1743 17.536C82.9503 17.6107 82.7476 17.6427 82.5663 17.632C82.3849 17.6107 82.2303 17.5627 82.1023 17.488C81.9743 17.4027 81.8729 17.2907 81.7983 17.152C81.7343 17.0133 81.7023 16.864 81.7023 16.704C81.7023 16.5227 81.7503 16.3467 81.8463 16.176C81.9423 15.9947 82.1289 15.8453 82.4062 15.728C82.6303 15.632 82.9556 15.5413 83.3823 15.456C83.8089 15.3707 84.2676 15.328 84.7583 15.328C85.8889 15.328 86.7583 15.5893 87.3663 16.112C87.9849 16.624 88.2943 17.4453 88.2943 18.576V22.496ZM84.6783 22.304C85.1263 22.304 85.4729 22.2507 85.7183 22.144C85.9743 22.0267 86.1449 21.9413 86.2303 21.888V20.448C85.9529 20.3627 85.6916 20.2987 85.4463 20.256C85.2116 20.2133 84.9396 20.192 84.6302 20.192C84.1929 20.192 83.8516 20.288 83.6063 20.48C83.3609 20.672 83.2383 20.9227 83.2383 21.232C83.2383 21.584 83.3663 21.8507 83.6223 22.032C83.8783 22.2133 84.2303 22.304 84.6783 22.304ZM96.5281 15.376C96.7308 15.376 96.9121 15.424 97.0721 15.52C97.2321 15.6053 97.3601 15.7227 97.4561 15.872C97.5628 16.0107 97.6268 16.1813 97.6481 16.384C97.6695 16.576 97.6428 16.7733 97.5681 16.976L95.5201 22.576C95.3281 23.088 95.0668 23.4773 94.7361 23.744C94.4055 24 94.0268 24.128 93.6001 24.128C93.1841 24.128 92.8108 24 92.4801 23.744C92.1601 23.488 91.9095 23.1093 91.7281 22.608L89.6801 16.976C89.6055 16.7627 89.5788 16.56 89.6001 16.368C89.6321 16.176 89.6961 16.0053 89.7921 15.856C89.8988 15.7067 90.0321 15.5893 90.1921 15.504C90.3521 15.4187 90.5335 15.376 90.7361 15.376C90.9921 15.376 91.2108 15.456 91.3921 15.616C91.5841 15.7653 91.7228 15.968 91.8081 16.224L93.5041 21.504C93.5255 21.5787 93.5681 21.616 93.6321 21.616C93.6855 21.616 93.7228 21.5787 93.7441 21.504L95.4241 16.24C95.5095 15.9733 95.6535 15.7653 95.8561 15.616C96.0588 15.456 96.2828 15.376 96.5281 15.376ZM105.622 22.496C105.622 22.6773 105.596 22.8267 105.542 22.944C105.489 23.0507 105.388 23.152 105.238 23.248C105.121 23.3227 104.961 23.4133 104.758 23.52C104.566 23.616 104.326 23.712 104.038 23.808C103.761 23.8933 103.441 23.968 103.078 24.032C102.716 24.096 102.31 24.128 101.862 24.128C101.286 24.128 100.785 24.0533 100.358 23.904C99.9317 23.7547 99.5797 23.552 99.3024 23.296C99.025 23.04 98.817 22.7413 98.6784 22.4C98.5504 22.0587 98.4864 21.696 98.4864 21.312C98.4864 20.9707 98.545 20.6453 98.6624 20.336C98.7904 20.016 98.9877 19.7387 99.2544 19.504C99.521 19.2587 99.8624 19.0667 100.278 18.928C100.694 18.7787 101.196 18.704 101.782 18.704C102.134 18.704 102.438 18.7253 102.694 18.768C102.961 18.8107 103.249 18.8693 103.558 18.944V18.512C103.558 18.096 103.446 17.7867 103.222 17.584C102.998 17.3707 102.604 17.264 102.038 17.264C101.761 17.264 101.484 17.296 101.206 17.36C100.94 17.4133 100.705 17.472 100.502 17.536C100.278 17.6107 100.076 17.6427 99.8944 17.632C99.713 17.6107 99.5584 17.5627 99.4304 17.488C99.3024 17.4027 99.201 17.2907 99.1264 17.152C99.0624 17.0133 99.0304 16.864 99.0304 16.704C99.0304 16.5227 99.0784 16.3467 99.1744 16.176C99.2704 15.9947 99.457 15.8453 99.7344 15.728C99.9584 15.632 100.284 15.5413 100.71 15.456C101.137 15.3707 101.596 15.328 102.086 15.328C103.217 15.328 104.086 15.5893 104.694 16.112C105.313 16.624 105.622 17.4453 105.622 18.576V22.496ZM102.006 22.304C102.454 22.304 102.801 22.2507 103.046 22.144C103.302 22.0267 103.473 21.9413 103.558 21.888V20.448C103.281 20.3627 103.02 20.2987 102.774 20.256C102.54 20.2133 102.268 20.192 101.958 20.192C101.521 20.192 101.18 20.288 100.934 20.48C100.689 20.672 100.566 20.9227 100.566 21.232C100.566 21.584 100.694 21.8507 100.95 22.032C101.206 22.2133 101.558 22.304 102.006 22.304ZM110.096 13.328C110.096 13.6373 109.984 13.9093 109.76 14.144C109.536 14.3787 109.27 14.496 108.96 14.496C108.63 14.496 108.358 14.3787 108.144 14.144C107.931 13.9093 107.824 13.6373 107.824 13.328C107.824 13.008 107.931 12.7413 108.144 12.528C108.358 12.304 108.63 12.192 108.96 12.192C109.27 12.192 109.536 12.304 109.76 12.528C109.984 12.7413 110.096 13.008 110.096 13.328ZM108.96 15.376C109.259 15.376 109.51 15.4827 109.712 15.696C109.926 15.9093 110.032 16.1707 110.032 16.48V22.976C110.032 23.2853 109.931 23.5467 109.728 23.76C109.526 23.9733 109.27 24.08 108.96 24.08C108.672 24.08 108.422 23.9733 108.208 23.76C107.995 23.5467 107.888 23.2853 107.888 22.976V16.48C107.888 16.1707 107.99 15.9093 108.192 15.696C108.395 15.4827 108.651 15.376 108.96 15.376ZM113.49 12.528C113.788 12.528 114.039 12.64 114.242 12.864C114.455 13.0773 114.562 13.3387 114.562 13.648V22.976C114.562 23.2853 114.46 23.5467 114.258 23.76C114.055 23.9733 113.799 24.08 113.49 24.08C113.202 24.08 112.951 23.9733 112.738 23.76C112.524 23.5467 112.418 23.2853 112.418 22.976V13.648C112.418 13.3387 112.519 13.0773 112.722 12.864C112.924 12.64 113.18 12.528 113.49 12.528ZM123.622 22.496C123.622 22.6773 123.596 22.8267 123.542 22.944C123.489 23.0507 123.388 23.152 123.238 23.248C123.121 23.3227 122.961 23.4133 122.758 23.52C122.566 23.616 122.326 23.712 122.038 23.808C121.761 23.8933 121.441 23.968 121.078 24.032C120.716 24.096 120.31 24.128 119.862 24.128C119.286 24.128 118.785 24.0533 118.358 23.904C117.932 23.7547 117.58 23.552 117.302 23.296C117.025 23.04 116.817 22.7413 116.678 22.4C116.55 22.0587 116.486 21.696 116.486 21.312C116.486 20.9707 116.545 20.6453 116.662 20.336C116.79 20.016 116.988 19.7387 117.254 19.504C117.521 19.2587 117.862 19.0667 118.278 18.928C118.694 18.7787 119.196 18.704 119.782 18.704C120.134 18.704 120.438 18.7253 120.694 18.768C120.961 18.8107 121.249 18.8693 121.558 18.944V18.512C121.558 18.096 121.446 17.7867 121.222 17.584C120.998 17.3707 120.604 17.264 120.038 17.264C119.761 17.264 119.484 17.296 119.206 17.36C118.94 17.4133 118.705 17.472 118.502 17.536C118.278 17.6107 118.076 17.6427 117.894 17.632C117.713 17.6107 117.558 17.5627 117.43 17.488C117.302 17.4027 117.201 17.2907 117.126 17.152C117.062 17.0133 117.03 16.864 117.03 16.704C117.03 16.5227 117.078 16.3467 117.174 16.176C117.27 15.9947 117.457 15.8453 117.734 15.728C117.958 15.632 118.284 15.5413 118.71 15.456C119.137 15.3707 119.596 15.328 120.086 15.328C121.217 15.328 122.086 15.5893 122.694 16.112C123.313 16.624 123.622 17.4453 123.622 18.576V22.496ZM120.006 22.304C120.454 22.304 120.801 22.2507 121.046 22.144C121.302 22.0267 121.473 21.9413 121.558 21.888V20.448C121.281 20.3627 121.02 20.2987 120.774 20.256C120.54 20.2133 120.268 20.192 119.958 20.192C119.521 20.192 119.18 20.288 118.934 20.48C118.689 20.672 118.566 20.9227 118.566 21.232C118.566 21.584 118.694 21.8507 118.95 22.032C119.206 22.2133 119.558 22.304 120.006 22.304ZM133.344 18.592C133.355 18.7413 133.36 18.912 133.36 19.104C133.371 19.296 133.376 19.4933 133.376 19.696C133.376 19.8987 133.371 20.1013 133.36 20.304C133.36 20.496 133.355 20.6613 133.344 20.8C133.302 21.2907 133.184 21.7387 132.992 22.144C132.8 22.5493 132.539 22.9013 132.208 23.2C131.888 23.488 131.504 23.7173 131.056 23.888C130.608 24.048 130.107 24.128 129.552 24.128C129.147 24.128 128.763 24.0907 128.4 24.016C128.048 23.9413 127.728 23.8507 127.44 23.744C127.152 23.6373 126.902 23.5307 126.688 23.424C126.475 23.3067 126.31 23.2053 126.192 23.12C126.043 23.024 125.942 22.9227 125.888 22.816C125.835 22.6987 125.808 22.5493 125.808 22.368V13.616C125.808 13.3067 125.91 13.0453 126.112 12.832C126.315 12.6187 126.571 12.512 126.88 12.512C127.179 12.512 127.43 12.6187 127.632 12.832C127.846 13.0453 127.952 13.3067 127.952 13.616V15.728C128.198 15.6213 128.491 15.5307 128.832 15.456C129.184 15.3707 129.52 15.328 129.84 15.328C130.896 15.328 131.718 15.6267 132.304 16.224C132.902 16.8107 133.248 17.6 133.344 18.592ZM131.2 20.448C131.211 20.3413 131.216 20.2187 131.216 20.08C131.216 19.9413 131.216 19.8027 131.216 19.664C131.216 19.5253 131.211 19.392 131.2 19.264C131.2 19.136 131.2 19.0293 131.2 18.944C131.168 18.4427 131.024 18.0587 130.768 17.792C130.523 17.5147 130.144 17.376 129.632 17.376C129.28 17.376 128.944 17.4293 128.624 17.536C128.315 17.632 128.091 17.7227 127.952 17.808V21.584C128.08 21.7013 128.299 21.8133 128.608 21.92C128.918 22.0267 129.216 22.08 129.504 22.08C130.027 22.08 130.427 21.9413 130.704 21.664C130.992 21.376 131.158 20.9707 131.2 20.448ZM137.69 13.328C137.69 13.6373 137.578 13.9093 137.354 14.144C137.13 14.3787 136.863 14.496 136.554 14.496C136.223 14.496 135.951 14.3787 135.738 14.144C135.525 13.9093 135.418 13.6373 135.418 13.328C135.418 13.008 135.525 12.7413 135.738 12.528C135.951 12.304 136.223 12.192 136.554 12.192C136.863 12.192 137.13 12.304 137.354 12.528C137.578 12.7413 137.69 13.008 137.69 13.328ZM136.554 15.376C136.853 15.376 137.103 15.4827 137.306 15.696C137.519 15.9093 137.626 16.1707 137.626 16.48V22.976C137.626 23.2853 137.525 23.5467 137.322 23.76C137.119 23.9733 136.863 24.08 136.554 24.08C136.266 24.08 136.015 23.9733 135.802 23.76C135.589 23.5467 135.482 23.2853 135.482 22.976V16.48C135.482 16.1707 135.583 15.9093 135.786 15.696C135.989 15.4827 136.245 15.376 136.554 15.376ZM141.083 12.528C141.382 12.528 141.633 12.64 141.835 12.864C142.049 13.0773 142.155 13.3387 142.155 13.648V22.976C142.155 23.2853 142.054 23.5467 141.851 23.76C141.649 23.9733 141.393 24.08 141.083 24.08C140.795 24.08 140.545 23.9733 140.331 23.76C140.118 23.5467 140.011 23.2853 140.011 22.976V13.648C140.011 13.3387 140.113 13.0773 140.315 12.864C140.518 12.64 140.774 12.528 141.083 12.528ZM146.768 13.328C146.768 13.6373 146.656 13.9093 146.432 14.144C146.208 14.3787 145.941 14.496 145.632 14.496C145.301 14.496 145.029 14.3787 144.816 14.144C144.603 13.9093 144.496 13.6373 144.496 13.328C144.496 13.008 144.603 12.7413 144.816 12.528C145.029 12.304 145.301 12.192 145.632 12.192C145.941 12.192 146.208 12.304 146.432 12.528C146.656 12.7413 146.768 13.008 146.768 13.328ZM145.632 15.376C145.931 15.376 146.181 15.4827 146.384 15.696C146.597 15.9093 146.704 16.1707 146.704 16.48V22.976C146.704 23.2853 146.603 23.5467 146.4 23.76C146.197 23.9733 145.941 24.08 145.632 24.08C145.344 24.08 145.093 23.9733 144.88 23.76C144.667 23.5467 144.56 23.2853 144.56 22.976V16.48C144.56 16.1707 144.661 15.9093 144.864 15.696C145.067 15.4827 145.323 15.376 145.632 15.376ZM153.842 23.792C153.564 23.92 153.244 24.0053 152.882 24.048C152.53 24.1013 152.199 24.128 151.89 24.128C151.388 24.128 150.956 24.048 150.594 23.888C150.242 23.728 149.943 23.5093 149.698 23.232C149.463 22.944 149.287 22.608 149.17 22.224C149.063 21.84 149.01 21.424 149.01 20.976V14.656C149.01 14.3467 149.111 14.0853 149.314 13.872C149.516 13.648 149.772 13.536 150.082 13.536C150.38 13.536 150.631 13.648 150.834 13.872C151.047 14.0853 151.154 14.3467 151.154 14.656V15.744H153.154C153.42 15.744 153.65 15.8347 153.842 16.016C154.044 16.1973 154.146 16.4267 154.146 16.704C154.146 16.9707 154.044 17.1947 153.842 17.376C153.65 17.5467 153.42 17.632 153.154 17.632H151.154V20.928C151.154 21.7173 151.5 22.112 152.194 22.112C152.375 22.112 152.546 22.096 152.706 22.064C152.876 22.0213 153.036 21.9787 153.186 21.936C153.591 21.84 153.911 21.8933 154.146 22.096C154.391 22.2987 154.514 22.5493 154.514 22.848C154.514 23.0293 154.46 23.2053 154.354 23.376C154.258 23.536 154.087 23.6747 153.842 23.792ZM155.54 16.944C155.455 16.7413 155.423 16.544 155.444 16.352C155.465 16.16 155.524 15.9947 155.62 15.856C155.716 15.7067 155.844 15.5893 156.004 15.504C156.175 15.408 156.361 15.36 156.564 15.36C156.809 15.36 157.028 15.4293 157.22 15.568C157.412 15.7067 157.561 15.9147 157.668 16.192L159.428 20.736C159.449 20.8 159.481 20.832 159.524 20.832C159.545 20.832 159.561 20.832 159.572 20.832C159.583 20.8213 159.599 20.7893 159.62 20.736L161.284 16.192C161.487 15.6373 161.855 15.36 162.388 15.36C162.591 15.36 162.777 15.408 162.948 15.504C163.119 15.5893 163.252 15.7067 163.348 15.856C163.444 16.0053 163.497 16.176 163.508 16.368C163.529 16.56 163.497 16.7573 163.412 16.96L160.42 23.92C160.079 24.7093 159.716 25.3493 159.332 25.84C158.948 26.3413 158.601 26.6933 158.292 26.896C158.175 26.9813 158.036 27.0507 157.876 27.104C157.716 27.168 157.561 27.2 157.412 27.2C157.124 27.2 156.873 27.1093 156.66 26.928C156.447 26.7467 156.34 26.5013 156.34 26.192C156.34 25.8507 156.5 25.5627 156.82 25.328C157.065 25.1573 157.327 24.912 157.604 24.592C157.881 24.2827 158.111 23.872 158.292 23.36L155.54 16.944Z" fill="#3C3D41"/>
</g>
<defs>
<filter id="filter0_d" x="0" y="0" width="192" height="48" filterUnits="userSpaceOnUse" color-interpolation-filters="sRGB">
<feFlood flood-opacity="0" result="BackgroundImageFix"/>
<feColorMatrix in="SourceAlpha" type="matrix" values="0 0 0 0 0 0 0 0 0 0 0 0 0 0 0 0 0 0 127 0"/>
<feOffset dy="4"/>
<feGaussianBlur stdDeviation="2"/>
<feColorMatrix type="matrix" values="0 0 0 0 0 0 0 0 0 0 0 0 0 0 0 0 0 0 0.25 0"/>
<feBlend mode="normal" in2="BackgroundImageFix" result="effect1_dropShadow"/>
<feBlend mode="normal" in="SourceGraphic" in2="effect1_dropShadow" result="shape"/>
</filter>
</defs>
</svg>
