<svg width="438" height="20" viewBox="0 0 438 20" fill="none" xmlns="http://www.w3.org/2000/svg">
<g filter="url(#filter0_d)">
<path d="M5.95 2.96C6.04333 2.96 6.12333 2.99333 6.19 3.06C6.26333 3.12667 6.29667 3.22 6.29 3.34L6.24 4.18C6.40667 4.07333 6.53667 3.99 6.63 3.93C6.72333 3.86333 6.79333 3.81333 6.84 3.78C6.89333 3.74667 6.92667 3.72333 6.94 3.71C6.96 3.69667 6.97333 3.69 6.98 3.69C7.06667 3.63 7.15667 3.61 7.25 3.63C7.35 3.64333 7.42333 3.69 7.47 3.77C7.53 3.87667 7.53667 3.97333 7.49 4.06C7.45 4.14667 7.39333 4.21 7.32 4.25L6.49 4.67L7.32 5.08C7.39333 5.11333 7.45 5.17667 7.49 5.27C7.53667 5.35667 7.53 5.45333 7.47 5.56C7.42333 5.64 7.35333 5.68667 7.26 5.7C7.16667 5.71333 7.07333 5.69333 6.98 5.64L6.23 5.17L6.29 6.01C6.30333 6.13 6.27333 6.22333 6.2 6.29C6.12667 6.35667 6.04333 6.39 5.95 6.39C5.85667 6.39 5.77333 6.35667 5.7 6.29C5.62667 6.22333 5.59667 6.13 5.61 6.01L5.67 5.17L4.92 5.64C4.82667 5.69333 4.73333 5.71333 4.64 5.7C4.54667 5.68667 4.47667 5.64 4.43 5.56C4.37 5.45333 4.36 5.35667 4.4 5.27C4.44667 5.17667 4.50667 5.11333 4.58 5.08L5.41 4.67L4.58 4.25C4.50667 4.21 4.44667 4.14667 4.4 4.06C4.36 3.97333 4.37 3.87667 4.43 3.77C4.47667 3.69 4.54667 3.64333 4.64 3.63C4.74 3.61 4.83333 3.63 4.92 3.69C4.92667 3.69 4.93667 3.69667 4.95 3.71C4.96333 3.72333 4.99333 3.74667 5.04 3.78C5.09333 3.81333 5.16667 3.86333 5.26 3.93C5.36 3.99 5.49333 4.07333 5.66 4.18L5.61 3.34C5.60333 3.22 5.63333 3.12667 5.7 3.06C5.77333 2.99333 5.85667 2.96 5.95 2.96ZM16.5111 2.95C16.6244 2.95 16.7211 2.99 16.8011 3.07C16.8878 3.15 16.9311 3.24667 16.9311 3.36C16.9311 3.46667 16.8978 3.55667 16.8311 3.63L14.5311 6.45C14.4511 6.55 14.3844 6.63667 14.3311 6.71C14.2844 6.77667 14.2611 6.88 14.2611 7.02V9.62C14.2611 9.73333 14.2211 9.83333 14.1411 9.92C14.0678 10 13.9711 10.04 13.8511 10.04C13.7378 10.04 13.6411 10 13.5611 9.92C13.4811 9.83333 13.4411 9.73333 13.4411 9.62V7.02C13.4411 6.88 13.4144 6.77333 13.3611 6.7C13.3144 6.62667 13.2511 6.54 13.1711 6.44L10.8811 3.64C10.8478 3.6 10.8211 3.55667 10.8011 3.51C10.7878 3.45667 10.7811 3.40667 10.7811 3.36C10.7811 3.25333 10.8211 3.16 10.9011 3.08C10.9878 3 11.0878 2.96 11.2011 2.96C11.3344 2.96 11.4411 3.01 11.5211 3.11L13.8511 6.03L16.1911 3.11C16.2778 3.00333 16.3844 2.95 16.5111 2.95ZM19.4014 4.67C19.7081 4.67 19.9947 4.72 20.2614 4.82C20.5281 4.91333 20.7581 5.04667 20.9514 5.22C21.1514 5.39333 21.3081 5.60333 21.4214 5.85C21.5414 6.09 21.6114 6.35667 21.6314 6.65C21.6447 6.85667 21.6514 7.09667 21.6514 7.37C21.6514 7.63667 21.6447 7.87 21.6314 8.07C21.6114 8.36333 21.5414 8.63333 21.4214 8.88C21.3081 9.12667 21.1514 9.34 20.9514 9.52C20.7581 9.7 20.5281 9.84 20.2614 9.94C19.9947 10.04 19.7081 10.09 19.4014 10.09C19.0947 10.09 18.8081 10.04 18.5414 9.94C18.2814 9.84 18.0514 9.7 17.8514 9.52C17.6514 9.34 17.4914 9.12667 17.3714 8.88C17.2581 8.63333 17.1914 8.36333 17.1714 8.07C17.1647 7.97 17.1581 7.86 17.1514 7.74C17.1514 7.61333 17.1514 7.48667 17.1514 7.36C17.1514 7.23333 17.1514 7.11 17.1514 6.99C17.1581 6.86333 17.1647 6.75 17.1714 6.65C17.1914 6.35667 17.2581 6.09 17.3714 5.85C17.4914 5.60333 17.6514 5.39333 17.8514 5.22C18.0514 5.04667 18.2814 4.91333 18.5414 4.82C18.8081 4.72 19.0947 4.67 19.4014 4.67ZM19.4014 5.43C18.9814 5.43 18.6447 5.55 18.3914 5.79C18.1447 6.03 18.0081 6.33667 17.9814 6.71C17.9747 6.79667 17.9681 6.9 17.9614 7.02C17.9614 7.13333 17.9614 7.25 17.9614 7.37C17.9614 7.49 17.9614 7.60667 17.9614 7.72C17.9681 7.83333 17.9747 7.93333 17.9814 8.02C18.0147 8.41333 18.1581 8.73 18.4114 8.97C18.6647 9.21 18.9947 9.33 19.4014 9.33C19.8081 9.33 20.1381 9.21 20.3914 8.97C20.6447 8.73 20.7881 8.41333 20.8214 8.02C20.8281 7.93333 20.8314 7.83333 20.8314 7.72C20.8314 7.60667 20.8314 7.49 20.8314 7.37C20.8314 7.25 20.8314 7.13333 20.8314 7.02C20.8314 6.9 20.8281 6.79667 20.8214 6.71C20.7947 6.33667 20.6547 6.03 20.4014 5.79C20.1547 5.55 19.8214 5.43 19.4014 5.43ZM23.1994 5.16C23.1994 5.04667 23.236 4.95 23.3094 4.87C23.3894 4.78333 23.486 4.74 23.5994 4.74C23.7127 4.74 23.8094 4.78333 23.8894 4.87C23.9694 4.95 24.0094 5.04667 24.0094 5.16V8.06C24.0094 8.45333 24.126 8.76333 24.3594 8.99C24.5994 9.21 24.9294 9.32 25.3494 9.32C25.6694 9.32 25.9427 9.28333 26.1694 9.21C26.396 9.13 26.5827 9.04333 26.7294 8.95V5.16C26.7294 5.04667 26.766 4.95 26.8394 4.87C26.9194 4.78333 27.016 4.74 27.1294 4.74C27.2427 4.74 27.3394 4.78333 27.4194 4.87C27.4994 4.95 27.5394 5.04667 27.5394 5.16V9.16C27.5394 9.30667 27.4827 9.41667 27.3694 9.49C27.296 9.54333 27.196 9.60667 27.0694 9.68C26.9494 9.74667 26.8027 9.81 26.6294 9.87C26.4627 9.93 26.2727 9.98 26.0594 10.02C25.846 10.0667 25.6094 10.09 25.3494 10.09C25.0294 10.09 24.736 10.0467 24.4694 9.96C24.2094 9.86667 23.9827 9.73333 23.7894 9.56C23.6027 9.38667 23.456 9.17333 23.3494 8.92C23.2494 8.66667 23.1994 8.37667 23.1994 8.05V5.16ZM31.8031 4.78C32.0165 4.83333 32.1231 4.96 32.1231 5.16C32.1231 5.24 32.0898 5.32333 32.0231 5.41C31.9631 5.49 31.8631 5.53 31.7231 5.53C31.6231 5.53 31.5098 5.51667 31.3831 5.49C31.2565 5.46333 31.1065 5.45 30.9331 5.45C30.6531 5.45667 30.4465 5.53333 30.3131 5.68C30.1865 5.82 30.1231 6.04333 30.1231 6.35V9.63C30.1231 9.74333 30.0831 9.84 30.0031 9.92C29.9231 10 29.8265 10.04 29.7131 10.04C29.5998 10.04 29.5031 10 29.4231 9.92C29.3431 9.84 29.3031 9.74333 29.3031 9.63V6.26C29.3031 5.76667 29.4431 5.38 29.7231 5.1C30.0031 4.81333 30.4065 4.67 30.9331 4.67C31.1065 4.67 31.2698 4.68 31.4231 4.7C31.5831 4.72 31.7098 4.74667 31.8031 4.78ZM40.2368 8.1C40.1835 8.72667 39.9701 9.21667 39.5968 9.57C39.2235 9.91667 38.7035 10.09 38.0368 10.09C37.7835 10.09 37.5368 10.0567 37.2968 9.99C37.0635 9.92333 36.8601 9.85 36.6868 9.77V11.52C36.6868 11.6333 36.6468 11.73 36.5668 11.81C36.4935 11.8967 36.4001 11.94 36.2868 11.94C36.1735 11.94 36.0768 11.8967 35.9968 11.81C35.9168 11.73 35.8768 11.6333 35.8768 11.52V5.59C35.8768 5.52333 35.8868 5.46667 35.9068 5.42C35.9268 5.37333 35.9701 5.32667 36.0368 5.28C36.0968 5.23333 36.1935 5.17667 36.3268 5.11C36.4601 5.04333 36.6168 4.97667 36.7968 4.91C36.9768 4.84333 37.1735 4.78667 37.3868 4.74C37.6068 4.69333 37.8335 4.67 38.0668 4.67C38.7201 4.67 39.2301 4.85333 39.5968 5.22C39.9701 5.58 40.1835 6.07 40.2368 6.69C40.2435 6.77667 40.2468 6.88333 40.2468 7.01C40.2535 7.13667 40.2568 7.26667 40.2568 7.4C40.2568 7.52667 40.2535 7.65333 40.2468 7.78C40.2468 7.90667 40.2435 8.01333 40.2368 8.1ZM39.4168 6.75C39.3368 5.87 38.8835 5.43 38.0568 5.43C37.9301 5.43 37.7968 5.44333 37.6568 5.47C37.5235 5.49667 37.3935 5.53 37.2668 5.57C37.1401 5.61 37.0268 5.65667 36.9268 5.71C36.8268 5.75667 36.7468 5.8 36.6868 5.84V8.96C36.7401 8.99333 36.8135 9.03333 36.9068 9.08C37.0001 9.12 37.1035 9.16 37.2168 9.2C37.3368 9.23333 37.4635 9.26333 37.5968 9.29C37.7368 9.31667 37.8768 9.33 38.0168 9.33C38.4768 9.33 38.8168 9.22333 39.0368 9.01C39.2568 8.79 39.3835 8.47333 39.4168 8.06C39.4235 7.98667 39.4268 7.89333 39.4268 7.78C39.4335 7.66667 39.4368 7.54667 39.4368 7.42C39.4368 7.29333 39.4335 7.17333 39.4268 7.06C39.4268 6.94 39.4235 6.83667 39.4168 6.75ZM43.8252 4.67C44.1319 4.67 44.4186 4.72 44.6852 4.82C44.9519 4.91333 45.1819 5.04667 45.3752 5.22C45.5752 5.39333 45.7319 5.60333 45.8452 5.85C45.9652 6.09 46.0352 6.35667 46.0552 6.65C46.0686 6.85667 46.0752 7.09667 46.0752 7.37C46.0752 7.63667 46.0686 7.87 46.0552 8.07C46.0352 8.36333 45.9652 8.63333 45.8452 8.88C45.7319 9.12667 45.5752 9.34 45.3752 9.52C45.1819 9.7 44.9519 9.84 44.6852 9.94C44.4186 10.04 44.1319 10.09 43.8252 10.09C43.5186 10.09 43.2319 10.04 42.9652 9.94C42.7052 9.84 42.4752 9.7 42.2752 9.52C42.0752 9.34 41.9152 9.12667 41.7952 8.88C41.6819 8.63333 41.6152 8.36333 41.5952 8.07C41.5886 7.97 41.5819 7.86 41.5752 7.74C41.5752 7.61333 41.5752 7.48667 41.5752 7.36C41.5752 7.23333 41.5752 7.11 41.5752 6.99C41.5819 6.86333 41.5886 6.75 41.5952 6.65C41.6152 6.35667 41.6819 6.09 41.7952 5.85C41.9152 5.60333 42.0752 5.39333 42.2752 5.22C42.4752 5.04667 42.7052 4.91333 42.9652 4.82C43.2319 4.72 43.5186 4.67 43.8252 4.67ZM43.8252 5.43C43.4052 5.43 43.0686 5.55 42.8152 5.79C42.5686 6.03 42.4319 6.33667 42.4052 6.71C42.3986 6.79667 42.3919 6.9 42.3852 7.02C42.3852 7.13333 42.3852 7.25 42.3852 7.37C42.3852 7.49 42.3852 7.60667 42.3852 7.72C42.3919 7.83333 42.3986 7.93333 42.4052 8.02C42.4386 8.41333 42.5819 8.73 42.8352 8.97C43.0886 9.21 43.4186 9.33 43.8252 9.33C44.2319 9.33 44.5619 9.21 44.8152 8.97C45.0686 8.73 45.2119 8.41333 45.2452 8.02C45.2519 7.93333 45.2552 7.83333 45.2552 7.72C45.2552 7.60667 45.2552 7.49 45.2552 7.37C45.2552 7.25 45.2552 7.13333 45.2552 7.02C45.2552 6.9 45.2519 6.79667 45.2452 6.71C45.2186 6.33667 45.0786 6.03 44.8252 5.79C44.5786 5.55 44.2452 5.43 43.8252 5.43ZM49.8632 7.08C50.7499 7.30667 51.1932 7.77667 51.1932 8.49C51.1932 8.73667 51.1465 8.96 51.0532 9.16C50.9599 9.35333 50.8265 9.52 50.6532 9.66C50.4865 9.8 50.2832 9.90667 50.0432 9.98C49.8032 10.0533 49.5399 10.09 49.2532 10.09C48.5199 10.09 47.9265 9.90333 47.4732 9.53C47.3932 9.46333 47.3465 9.37667 47.3332 9.27C47.3199 9.16333 47.3399 9.07 47.3932 8.99C47.4599 8.90333 47.5432 8.85 47.6432 8.83C47.7432 8.81 47.8465 8.83667 47.9532 8.91C48.0399 8.97 48.1232 9.03 48.2032 9.09C48.2899 9.14333 48.3865 9.19 48.4932 9.23C48.5999 9.27 48.7199 9.30333 48.8532 9.33C48.9865 9.35 49.1432 9.36 49.3232 9.36C49.6632 9.36 49.9265 9.28 50.1132 9.12C50.2999 8.96 50.3932 8.76333 50.3932 8.53C50.3932 8.35667 50.3299 8.21333 50.2032 8.1C50.0832 7.98 49.8799 7.88333 49.5932 7.81C49.5065 7.79 49.4365 7.77667 49.3832 7.77C49.3365 7.75667 49.2899 7.74667 49.2432 7.74C49.2032 7.72667 49.1532 7.71333 49.0932 7.7C49.0399 7.68667 48.9665 7.66667 48.8732 7.64C48.4065 7.52 48.0532 7.35 47.8132 7.13C47.5799 6.90333 47.4632 6.6 47.4632 6.22C47.4632 5.98 47.5065 5.76667 47.5932 5.58C47.6865 5.38667 47.8165 5.22333 47.9832 5.09C48.1499 4.95667 48.3465 4.85333 48.5732 4.78C48.8065 4.70667 49.0599 4.67 49.3332 4.67C49.6199 4.67 49.8899 4.71333 50.1432 4.8C50.4032 4.88 50.6099 4.98 50.7632 5.1C50.8632 5.18 50.9099 5.27667 50.9032 5.39C50.9032 5.50333 50.8732 5.59333 50.8132 5.66C50.7465 5.73333 50.6632 5.77333 50.5632 5.78C50.4632 5.78667 50.3665 5.76333 50.2732 5.71C50.1132 5.61667 49.9532 5.54333 49.7932 5.49C49.6399 5.43667 49.4765 5.41 49.3032 5.41C48.9499 5.41 48.6865 5.48 48.5132 5.62C48.3399 5.75333 48.2532 5.94333 48.2532 6.19C48.2532 6.35 48.3065 6.48667 48.4132 6.6C48.5265 6.70667 48.7332 6.8 49.0332 6.88C49.1932 6.92667 49.3499 6.96667 49.5032 7C49.6632 7.03333 49.7832 7.06 49.8632 7.08ZM55.0863 9.92C54.9529 9.97333 54.7963 10.0133 54.6163 10.04C54.4363 10.0733 54.2496 10.09 54.0563 10.09C53.7896 10.09 53.5596 10.05 53.3663 9.97C53.1729 9.88333 53.0129 9.76667 52.8863 9.62C52.7596 9.47333 52.6663 9.3 52.6063 9.1C52.5463 8.89333 52.5163 8.67333 52.5163 8.44V4.09C52.5163 3.97667 52.5529 3.88 52.6263 3.8C52.7063 3.72 52.8029 3.68 52.9163 3.68C53.0296 3.68 53.1263 3.72 53.2063 3.8C53.2863 3.88 53.3263 3.97667 53.3263 4.09V4.91H54.8363C54.9363 4.91 55.0229 4.94667 55.0963 5.02C55.1763 5.08667 55.2163 5.17333 55.2163 5.28C55.2163 5.38667 55.1763 5.47667 55.0963 5.55C55.0229 5.61667 54.9363 5.65 54.8363 5.65H53.3263V8.47C53.3263 8.72333 53.3863 8.93333 53.5063 9.1C53.6263 9.26 53.8229 9.34 54.0963 9.34C54.2429 9.34 54.3829 9.32 54.5163 9.28C54.6496 9.23333 54.7763 9.19333 54.8963 9.16C55.0629 9.12 55.1896 9.14 55.2763 9.22C55.3696 9.3 55.4163 9.40333 55.4163 9.53C55.4163 9.71667 55.3063 9.84667 55.0863 9.92ZM58.6695 9.33C58.9295 9.33 59.1761 9.26333 59.4095 9.13C59.6495 8.99 59.8295 8.77333 59.9495 8.48C59.9961 8.38 60.0495 8.31 60.1095 8.27C60.1761 8.23 60.2528 8.21 60.3395 8.21C60.4461 8.21 60.5361 8.25 60.6095 8.33C60.6828 8.40333 60.7195 8.5 60.7195 8.62C60.7195 8.73333 60.6761 8.87667 60.5895 9.05C60.5095 9.21667 60.3828 9.37667 60.2095 9.53C60.0428 9.68333 59.8295 9.81667 59.5695 9.93C59.3095 10.0367 59.0061 10.09 58.6595 10.09C58.3395 10.09 58.0428 10.04 57.7695 9.94C57.5028 9.83333 57.2728 9.69 57.0795 9.51C56.8861 9.32333 56.7328 9.10667 56.6195 8.86C56.5061 8.61333 56.4395 8.35 56.4195 8.07C56.4128 7.97 56.4061 7.86 56.3995 7.74C56.3995 7.61333 56.3995 7.48667 56.3995 7.36C56.3995 7.23333 56.3995 7.11 56.3995 6.99C56.4061 6.86333 56.4128 6.75 56.4195 6.65C56.4395 6.35667 56.5061 6.09 56.6195 5.85C56.7395 5.60333 56.8961 5.39333 57.0895 5.22C57.2895 5.04667 57.5228 4.91333 57.7895 4.82C58.0561 4.72 58.3461 4.67 58.6595 4.67C59.0061 4.67 59.3061 4.72667 59.5595 4.84C59.8195 4.94667 60.0328 5.08 60.1995 5.24C60.3661 5.39333 60.4895 5.55333 60.5695 5.72C60.6561 5.88667 60.6995 6.02667 60.6995 6.14C60.6995 6.26 60.6628 6.36 60.5895 6.44C60.5161 6.51333 60.4261 6.55 60.3195 6.55C60.2395 6.55 60.1661 6.53 60.0995 6.49C60.0328 6.45 59.9761 6.38 59.9295 6.28C59.8161 5.98667 59.6428 5.77333 59.4095 5.64C59.1761 5.5 58.9295 5.43 58.6695 5.43C58.2495 5.43 57.9128 5.54667 57.6595 5.78C57.4061 6.00667 57.2628 6.31333 57.2295 6.7C57.2228 6.76667 57.2161 6.85667 57.2095 6.97C57.2095 7.08333 57.2095 7.20333 57.2095 7.33C57.2095 7.45667 57.2095 7.58333 57.2095 7.71C57.2161 7.83 57.2228 7.93333 57.2295 8.02C57.2628 8.39333 57.3995 8.70667 57.6395 8.96C57.8861 9.20667 58.2295 9.33 58.6695 9.33ZM64.2159 4.67C64.5225 4.67 64.8092 4.72 65.0759 4.82C65.3425 4.91333 65.5725 5.04667 65.7659 5.22C65.9659 5.39333 66.1225 5.60333 66.2359 5.85C66.3559 6.09 66.4259 6.35667 66.4459 6.65C66.4592 6.85667 66.4659 7.09667 66.4659 7.37C66.4659 7.63667 66.4592 7.87 66.4459 8.07C66.4259 8.36333 66.3559 8.63333 66.2359 8.88C66.1225 9.12667 65.9659 9.34 65.7659 9.52C65.5725 9.7 65.3425 9.84 65.0759 9.94C64.8092 10.04 64.5225 10.09 64.2159 10.09C63.9092 10.09 63.6225 10.04 63.3559 9.94C63.0959 9.84 62.8659 9.7 62.6659 9.52C62.4659 9.34 62.3059 9.12667 62.1859 8.88C62.0725 8.63333 62.0059 8.36333 61.9859 8.07C61.9792 7.97 61.9725 7.86 61.9659 7.74C61.9659 7.61333 61.9659 7.48667 61.9659 7.36C61.9659 7.23333 61.9659 7.11 61.9659 6.99C61.9725 6.86333 61.9792 6.75 61.9859 6.65C62.0059 6.35667 62.0725 6.09 62.1859 5.85C62.3059 5.60333 62.4659 5.39333 62.6659 5.22C62.8659 5.04667 63.0959 4.91333 63.3559 4.82C63.6225 4.72 63.9092 4.67 64.2159 4.67ZM64.2159 5.43C63.7959 5.43 63.4592 5.55 63.2059 5.79C62.9592 6.03 62.8225 6.33667 62.7959 6.71C62.7892 6.79667 62.7825 6.9 62.7759 7.02C62.7759 7.13333 62.7759 7.25 62.7759 7.37C62.7759 7.49 62.7759 7.60667 62.7759 7.72C62.7825 7.83333 62.7892 7.93333 62.7959 8.02C62.8292 8.41333 62.9725 8.73 63.2259 8.97C63.4792 9.21 63.8092 9.33 64.2159 9.33C64.6225 9.33 64.9525 9.21 65.2059 8.97C65.4592 8.73 65.6025 8.41333 65.6359 8.02C65.6425 7.93333 65.6459 7.83333 65.6459 7.72C65.6459 7.60667 65.6459 7.49 65.6459 7.37C65.6459 7.25 65.6459 7.13333 65.6459 7.02C65.6459 6.9 65.6425 6.79667 65.6359 6.71C65.6092 6.33667 65.4692 6.03 65.2159 5.79C64.9692 5.55 64.6359 5.43 64.2159 5.43ZM67.8162 6.66C67.8695 6.03333 68.0728 5.54667 68.4262 5.2C68.7795 4.84667 69.2762 4.67 69.9162 4.67C70.1895 4.67 70.4528 4.70333 70.7062 4.77C70.9595 4.83667 71.1762 4.91 71.3562 4.99V3.31C71.3562 3.19667 71.3928 3.1 71.4662 3.02C71.5462 2.93333 71.6428 2.89 71.7562 2.89C71.8762 2.89 71.9728 2.93333 72.0462 3.02C72.1262 3.1 72.1662 3.19667 72.1662 3.31V9.16C72.1662 9.23333 72.1562 9.29333 72.1362 9.34C72.1162 9.38667 72.0695 9.43667 71.9962 9.49C71.9362 9.53 71.8428 9.58667 71.7162 9.66C71.5895 9.72667 71.4362 9.79333 71.2562 9.86C71.0828 9.92 70.8895 9.97333 70.6762 10.02C70.4695 10.0667 70.2528 10.09 70.0262 10.09C69.3595 10.09 68.8362 9.91 68.4562 9.55C68.0828 9.18333 67.8695 8.69 67.8162 8.07C67.8095 7.98333 67.8028 7.88 67.7962 7.76C67.7962 7.63333 67.7962 7.50333 67.7962 7.37C67.7962 7.23667 67.7962 7.11 67.7962 6.99C67.8028 6.86333 67.8095 6.75333 67.8162 6.66ZM68.6262 8.01C68.7062 8.89 69.1762 9.33 70.0362 9.33C70.1562 9.33 70.2828 9.31667 70.4162 9.29C70.5495 9.26333 70.6762 9.23 70.7962 9.19C70.9162 9.15 71.0262 9.10667 71.1262 9.06C71.2262 9.00667 71.3028 8.96 71.3562 8.92V5.78C71.2362 5.70667 71.0462 5.63 70.7862 5.55C70.5262 5.47 70.2462 5.43 69.9462 5.43C69.5128 5.43 69.1928 5.54 68.9862 5.76C68.7795 5.97333 68.6595 6.28667 68.6262 6.7C68.6195 6.77333 68.6128 6.86667 68.6062 6.98C68.6062 7.09333 68.6062 7.21333 68.6062 7.34C68.6062 7.46667 68.6062 7.59 68.6062 7.71C68.6128 7.82333 68.6195 7.92333 68.6262 8.01ZM78.182 7.14C78.182 7.31333 78.1354 7.45333 78.042 7.56C77.9487 7.66667 77.7987 7.72 77.592 7.72H74.602V7.88C74.602 8.35333 74.7387 8.71667 75.012 8.97C75.292 9.22333 75.652 9.35 76.092 9.35C76.272 9.35 76.462 9.32667 76.662 9.28C76.8687 9.23333 77.0854 9.17 77.312 9.09C77.3987 9.05667 77.4787 9.04333 77.552 9.05C77.6254 9.05667 77.6854 9.07667 77.732 9.11C77.7854 9.14333 77.8254 9.18667 77.852 9.24C77.8787 9.29333 77.892 9.35 77.892 9.41C77.892 9.47667 77.8754 9.54 77.842 9.6C77.8154 9.66 77.7587 9.71667 77.672 9.77C77.592 9.81667 77.4887 9.86 77.362 9.9C77.242 9.94 77.1087 9.97333 76.962 10C76.822 10.0267 76.6754 10.0467 76.522 10.06C76.3687 10.08 76.222 10.09 76.082 10.09C75.7354 10.09 75.4254 10.04 75.152 9.94C74.8787 9.83333 74.6454 9.68667 74.452 9.5C74.2587 9.30667 74.1087 9.08 74.002 8.82C73.8954 8.55333 73.832 8.26 73.812 7.94C73.7987 7.74667 73.792 7.53667 73.792 7.31C73.7987 7.08333 73.8087 6.89333 73.822 6.74C73.8487 6.42 73.922 6.13333 74.042 5.88C74.162 5.62 74.3187 5.4 74.512 5.22C74.7054 5.04 74.9287 4.90333 75.182 4.81C75.442 4.71667 75.7254 4.67 76.032 4.67C76.3587 4.67 76.6554 4.72333 76.922 4.83C77.1887 4.93667 77.4154 5.08667 77.602 5.28C77.7887 5.47333 77.932 5.70333 78.032 5.97C78.132 6.23 78.182 6.52 78.182 6.84V7.14ZM77.262 7.04C77.3354 7.04 77.3787 7 77.392 6.92C77.4054 6.69333 77.382 6.48667 77.322 6.3C77.2687 6.11333 77.182 5.95333 77.062 5.82C76.942 5.68667 76.7954 5.58333 76.622 5.51C76.4487 5.43667 76.2554 5.4 76.042 5.4C75.5487 5.4 75.182 5.55 74.942 5.85C74.702 6.14333 74.5887 6.54 74.602 7.04H77.262ZM86.3491 9.2C86.3491 9.27333 86.3357 9.33667 86.3091 9.39C86.2891 9.44333 86.2457 9.49 86.1791 9.53C86.1124 9.58333 86.0124 9.64333 85.8791 9.71C85.7524 9.77 85.5991 9.83 85.4191 9.89C85.2457 9.94333 85.0491 9.99 84.8291 10.03C84.6091 10.07 84.3791 10.09 84.1391 10.09C83.4791 10.09 82.9791 9.93333 82.6391 9.62C82.3057 9.3 82.1391 8.89 82.1391 8.39C82.1391 8.17 82.1791 7.96333 82.2591 7.77C82.3457 7.57 82.4724 7.39667 82.6391 7.25C82.8057 7.10333 83.0124 6.98667 83.2591 6.9C83.5124 6.81333 83.8091 6.77 84.1491 6.77C84.3891 6.77 84.6157 6.78667 84.8291 6.82C85.0491 6.85333 85.2891 6.90667 85.5491 6.98V6.57C85.5491 6.16333 85.4457 5.87 85.2391 5.69C85.0391 5.51 84.7257 5.42 84.2991 5.42C84.0657 5.42 83.8457 5.45 83.6391 5.51C83.4324 5.57 83.2557 5.62667 83.1091 5.68C82.9357 5.74667 82.7957 5.74333 82.6891 5.67C82.5824 5.59667 82.5291 5.49667 82.5291 5.37C82.5291 5.29667 82.5491 5.22667 82.5891 5.16C82.6291 5.09333 82.6957 5.03667 82.7891 4.99C82.9424 4.91667 83.1591 4.84667 83.4391 4.78C83.7257 4.70667 84.0391 4.67 84.3791 4.67C84.6791 4.67 84.9491 4.70667 85.1891 4.78C85.4291 4.85333 85.6357 4.96667 85.8091 5.12C85.9824 5.26667 86.1157 5.46 86.2091 5.7C86.3024 5.93333 86.3491 6.21333 86.3491 6.54V9.2ZM84.2291 9.36C84.4291 9.36 84.6057 9.34667 84.7591 9.32C84.9191 9.28667 85.0524 9.25 85.1591 9.21C85.2657 9.17 85.3524 9.13 85.4191 9.09C85.4857 9.04333 85.5291 9.01 85.5491 8.99V7.68C85.2957 7.61333 85.0624 7.56 84.8491 7.52C84.6424 7.48 84.4124 7.46 84.1591 7.46C83.8191 7.46 83.5324 7.54 83.2991 7.7C83.0657 7.85333 82.9491 8.07667 82.9491 8.37C82.9491 8.69 83.0524 8.93667 83.2591 9.11C83.4724 9.27667 83.7957 9.36 84.2291 9.36ZM88.4743 2.9C88.5876 2.9 88.6843 2.94 88.7643 3.02C88.8443 3.1 88.8843 3.19667 88.8843 3.31V9.62C88.8843 9.74 88.8443 9.84 88.7643 9.92C88.691 10 88.5943 10.04 88.4743 10.04C88.361 10.04 88.2643 10 88.1843 9.92C88.111 9.84 88.0743 9.74 88.0743 9.62V3.31C88.0743 3.19667 88.111 3.1 88.1843 3.02C88.2643 2.94 88.361 2.9 88.4743 2.9ZM91.1208 2.9C91.2341 2.9 91.3308 2.94 91.4108 3.02C91.4908 3.1 91.5308 3.19667 91.5308 3.31V9.62C91.5308 9.74 91.4908 9.84 91.4108 9.92C91.3374 10 91.2408 10.04 91.1208 10.04C91.0074 10.04 90.9108 10 90.8308 9.92C90.7574 9.84 90.7208 9.74 90.7208 9.62V3.31C90.7208 3.19667 90.7574 3.1 90.8308 3.02C90.9108 2.94 91.0074 2.9 91.1208 2.9ZM95.4073 4.67C95.7139 4.67 96.0006 4.72 96.2673 4.82C96.5339 4.91333 96.7639 5.04667 96.9573 5.22C97.1573 5.39333 97.3139 5.60333 97.4273 5.85C97.5473 6.09 97.6173 6.35667 97.6373 6.65C97.6506 6.85667 97.6573 7.09667 97.6573 7.37C97.6573 7.63667 97.6506 7.87 97.6373 8.07C97.6173 8.36333 97.5473 8.63333 97.4273 8.88C97.3139 9.12667 97.1573 9.34 96.9573 9.52C96.7639 9.7 96.5339 9.84 96.2673 9.94C96.0006 10.04 95.7139 10.09 95.4073 10.09C95.1006 10.09 94.8139 10.04 94.5473 9.94C94.2873 9.84 94.0573 9.7 93.8573 9.52C93.6573 9.34 93.4973 9.12667 93.3773 8.88C93.2639 8.63333 93.1973 8.36333 93.1773 8.07C93.1706 7.97 93.1639 7.86 93.1573 7.74C93.1573 7.61333 93.1573 7.48667 93.1573 7.36C93.1573 7.23333 93.1573 7.11 93.1573 6.99C93.1639 6.86333 93.1706 6.75 93.1773 6.65C93.1973 6.35667 93.2639 6.09 93.3773 5.85C93.4973 5.60333 93.6573 5.39333 93.8573 5.22C94.0573 5.04667 94.2873 4.91333 94.5473 4.82C94.8139 4.72 95.1006 4.67 95.4073 4.67ZM95.4073 5.43C94.9873 5.43 94.6506 5.55 94.3973 5.79C94.1506 6.03 94.0139 6.33667 93.9873 6.71C93.9806 6.79667 93.9739 6.9 93.9673 7.02C93.9673 7.13333 93.9673 7.25 93.9673 7.37C93.9673 7.49 93.9673 7.60667 93.9673 7.72C93.9739 7.83333 93.9806 7.93333 93.9873 8.02C94.0206 8.41333 94.1639 8.73 94.4173 8.97C94.6706 9.21 95.0006 9.33 95.4073 9.33C95.8139 9.33 96.1439 9.21 96.3973 8.97C96.6506 8.73 96.7939 8.41333 96.8273 8.02C96.8339 7.93333 96.8373 7.83333 96.8373 7.72C96.8373 7.60667 96.8373 7.49 96.8373 7.37C96.8373 7.25 96.8373 7.13333 96.8373 7.02C96.8373 6.9 96.8339 6.79667 96.8273 6.71C96.8006 6.33667 96.6606 6.03 96.4073 5.79C96.1606 5.55 95.8273 5.43 95.4073 5.43ZM102.436 5.67C102.43 5.64333 102.413 5.63 102.386 5.63C102.353 5.63 102.336 5.64333 102.336 5.67L101.316 9.49C101.263 9.70333 101.173 9.86333 101.046 9.97C100.92 10.07 100.77 10.12 100.596 10.12C100.423 10.12 100.266 10.07 100.126 9.97C99.9931 9.87 99.8997 9.71333 99.8464 9.5L98.6864 5.3C98.6464 5.14667 98.6631 5.01333 98.7364 4.9C98.8097 4.78 98.9164 4.72 99.0564 4.72C99.1431 4.72 99.2197 4.74667 99.2864 4.8C99.3531 4.84667 99.3997 4.91667 99.4264 5.01L100.556 9.23C100.57 9.26333 100.586 9.28 100.606 9.28C100.626 9.28 100.643 9.26333 100.656 9.23L101.666 5.31C101.713 5.12333 101.803 4.98 101.936 4.88C102.07 4.77333 102.22 4.72 102.386 4.72C102.56 4.72 102.71 4.77333 102.836 4.88C102.963 4.98 103.053 5.12667 103.106 5.32L104.116 9.23C104.13 9.26333 104.146 9.28 104.166 9.28C104.186 9.28 104.203 9.26333 104.216 9.23L105.306 5.04C105.326 4.94 105.373 4.86333 105.446 4.81C105.52 4.75 105.606 4.72 105.706 4.72C105.853 4.72 105.96 4.78 106.026 4.9C106.1 5.02 106.116 5.15333 106.076 5.3L104.906 9.5C104.846 9.71333 104.75 9.87 104.616 9.97C104.49 10.07 104.34 10.12 104.166 10.12C103.993 10.12 103.84 10.07 103.706 9.97C103.573 9.87 103.48 9.71333 103.426 9.5L102.436 5.67ZM109.512 7.08C110.398 7.30667 110.842 7.77667 110.842 8.49C110.842 8.73667 110.795 8.96 110.702 9.16C110.608 9.35333 110.475 9.52 110.302 9.66C110.135 9.8 109.932 9.90667 109.692 9.98C109.452 10.0533 109.188 10.09 108.902 10.09C108.168 10.09 107.575 9.90333 107.122 9.53C107.042 9.46333 106.995 9.37667 106.982 9.27C106.968 9.16333 106.988 9.07 107.042 8.99C107.108 8.90333 107.192 8.85 107.292 8.83C107.392 8.81 107.495 8.83667 107.602 8.91C107.688 8.97 107.772 9.03 107.852 9.09C107.938 9.14333 108.035 9.19 108.142 9.23C108.248 9.27 108.368 9.30333 108.502 9.33C108.635 9.35 108.792 9.36 108.972 9.36C109.312 9.36 109.575 9.28 109.762 9.12C109.948 8.96 110.042 8.76333 110.042 8.53C110.042 8.35667 109.978 8.21333 109.852 8.1C109.732 7.98 109.528 7.88333 109.242 7.81C109.155 7.79 109.085 7.77667 109.032 7.77C108.985 7.75667 108.938 7.74667 108.892 7.74C108.852 7.72667 108.802 7.71333 108.742 7.7C108.688 7.68667 108.615 7.66667 108.522 7.64C108.055 7.52 107.702 7.35 107.462 7.13C107.228 6.90333 107.112 6.6 107.112 6.22C107.112 5.98 107.155 5.76667 107.242 5.58C107.335 5.38667 107.465 5.22333 107.632 5.09C107.798 4.95667 107.995 4.85333 108.222 4.78C108.455 4.70667 108.708 4.67 108.982 4.67C109.268 4.67 109.538 4.71333 109.792 4.8C110.052 4.88 110.258 4.98 110.412 5.1C110.512 5.18 110.558 5.27667 110.552 5.39C110.552 5.50333 110.522 5.59333 110.462 5.66C110.395 5.73333 110.312 5.77333 110.212 5.78C110.112 5.78667 110.015 5.76333 109.922 5.71C109.762 5.61667 109.602 5.54333 109.442 5.49C109.288 5.43667 109.125 5.41 108.952 5.41C108.598 5.41 108.335 5.48 108.162 5.62C107.988 5.75333 107.902 5.94333 107.902 6.19C107.902 6.35 107.955 6.48667 108.062 6.6C108.175 6.70667 108.382 6.8 108.682 6.88C108.842 6.92667 108.998 6.96667 109.152 7C109.312 7.03333 109.432 7.06 109.512 7.08ZM114.879 5.16C114.879 5.04667 114.916 4.95 114.989 4.87C115.069 4.78333 115.166 4.74 115.279 4.74C115.392 4.74 115.489 4.78333 115.569 4.87C115.649 4.95 115.689 5.04667 115.689 5.16V8.06C115.689 8.45333 115.806 8.76333 116.039 8.99C116.279 9.21 116.609 9.32 117.029 9.32C117.349 9.32 117.622 9.28333 117.849 9.21C118.076 9.13 118.262 9.04333 118.409 8.95V5.16C118.409 5.04667 118.446 4.95 118.519 4.87C118.599 4.78333 118.696 4.74 118.809 4.74C118.922 4.74 119.019 4.78333 119.099 4.87C119.179 4.95 119.219 5.04667 119.219 5.16V9.16C119.219 9.30667 119.162 9.41667 119.049 9.49C118.976 9.54333 118.876 9.60667 118.749 9.68C118.629 9.74667 118.482 9.81 118.309 9.87C118.142 9.93 117.952 9.98 117.739 10.02C117.526 10.0667 117.289 10.09 117.029 10.09C116.709 10.09 116.416 10.0467 116.149 9.96C115.889 9.86667 115.662 9.73333 115.469 9.56C115.282 9.38667 115.136 9.17333 115.029 8.92C114.929 8.66667 114.879 8.37667 114.879 8.05V5.16ZM123.213 7.08C124.099 7.30667 124.543 7.77667 124.543 8.49C124.543 8.73667 124.496 8.96 124.403 9.16C124.309 9.35333 124.176 9.52 124.003 9.66C123.836 9.8 123.633 9.90667 123.393 9.98C123.153 10.0533 122.889 10.09 122.603 10.09C121.869 10.09 121.276 9.90333 120.823 9.53C120.743 9.46333 120.696 9.37667 120.683 9.27C120.669 9.16333 120.689 9.07 120.743 8.99C120.809 8.90333 120.893 8.85 120.993 8.83C121.093 8.81 121.196 8.83667 121.303 8.91C121.389 8.97 121.473 9.03 121.553 9.09C121.639 9.14333 121.736 9.19 121.843 9.23C121.949 9.27 122.069 9.30333 122.203 9.33C122.336 9.35 122.493 9.36 122.673 9.36C123.013 9.36 123.276 9.28 123.463 9.12C123.649 8.96 123.743 8.76333 123.743 8.53C123.743 8.35667 123.679 8.21333 123.553 8.1C123.433 7.98 123.229 7.88333 122.943 7.81C122.856 7.79 122.786 7.77667 122.733 7.77C122.686 7.75667 122.639 7.74667 122.593 7.74C122.553 7.72667 122.503 7.71333 122.443 7.7C122.389 7.68667 122.316 7.66667 122.223 7.64C121.756 7.52 121.403 7.35 121.163 7.13C120.929 6.90333 120.813 6.6 120.813 6.22C120.813 5.98 120.856 5.76667 120.943 5.58C121.036 5.38667 121.166 5.22333 121.333 5.09C121.499 4.95667 121.696 4.85333 121.923 4.78C122.156 4.70667 122.409 4.67 122.683 4.67C122.969 4.67 123.239 4.71333 123.493 4.8C123.753 4.88 123.959 4.98 124.113 5.1C124.213 5.18 124.259 5.27667 124.253 5.39C124.253 5.50333 124.223 5.59333 124.163 5.66C124.096 5.73333 124.013 5.77333 123.913 5.78C123.813 5.78667 123.716 5.76333 123.623 5.71C123.463 5.61667 123.303 5.54333 123.143 5.49C122.989 5.43667 122.826 5.41 122.653 5.41C122.299 5.41 122.036 5.48 121.863 5.62C121.689 5.75333 121.603 5.94333 121.603 6.19C121.603 6.35 121.656 6.48667 121.763 6.6C121.876 6.70667 122.083 6.8 122.383 6.88C122.543 6.92667 122.699 6.96667 122.853 7C123.013 7.03333 123.133 7.06 123.213 7.08ZM131.17 9.92C131.037 9.97333 130.88 10.0133 130.7 10.04C130.52 10.0733 130.334 10.09 130.14 10.09C129.874 10.09 129.644 10.05 129.45 9.97C129.257 9.88333 129.097 9.76667 128.97 9.62C128.844 9.47333 128.75 9.3 128.69 9.1C128.63 8.89333 128.6 8.67333 128.6 8.44V4.09C128.6 3.97667 128.637 3.88 128.71 3.8C128.79 3.72 128.887 3.68 129 3.68C129.114 3.68 129.21 3.72 129.29 3.8C129.37 3.88 129.41 3.97667 129.41 4.09V4.91H130.92C131.02 4.91 131.107 4.94667 131.18 5.02C131.26 5.08667 131.3 5.17333 131.3 5.28C131.3 5.38667 131.26 5.47667 131.18 5.55C131.107 5.61667 131.02 5.65 130.92 5.65H129.41V8.47C129.41 8.72333 129.47 8.93333 129.59 9.1C129.71 9.26 129.907 9.34 130.18 9.34C130.327 9.34 130.467 9.32 130.6 9.28C130.734 9.23333 130.86 9.19333 130.98 9.16C131.147 9.12 131.274 9.14 131.36 9.22C131.454 9.3 131.5 9.40333 131.5 9.53C131.5 9.71667 131.39 9.84667 131.17 9.92ZM134.733 4.67C135.04 4.67 135.327 4.72 135.593 4.82C135.86 4.91333 136.09 5.04667 136.283 5.22C136.483 5.39333 136.64 5.60333 136.753 5.85C136.873 6.09 136.943 6.35667 136.963 6.65C136.977 6.85667 136.983 7.09667 136.983 7.37C136.983 7.63667 136.977 7.87 136.963 8.07C136.943 8.36333 136.873 8.63333 136.753 8.88C136.64 9.12667 136.483 9.34 136.283 9.52C136.09 9.7 135.86 9.84 135.593 9.94C135.327 10.04 135.04 10.09 134.733 10.09C134.427 10.09 134.14 10.04 133.873 9.94C133.613 9.84 133.383 9.7 133.183 9.52C132.983 9.34 132.823 9.12667 132.703 8.88C132.59 8.63333 132.523 8.36333 132.503 8.07C132.497 7.97 132.49 7.86 132.483 7.74C132.483 7.61333 132.483 7.48667 132.483 7.36C132.483 7.23333 132.483 7.11 132.483 6.99C132.49 6.86333 132.497 6.75 132.503 6.65C132.523 6.35667 132.59 6.09 132.703 5.85C132.823 5.60333 132.983 5.39333 133.183 5.22C133.383 5.04667 133.613 4.91333 133.873 4.82C134.14 4.72 134.427 4.67 134.733 4.67ZM134.733 5.43C134.313 5.43 133.977 5.55 133.723 5.79C133.477 6.03 133.34 6.33667 133.313 6.71C133.307 6.79667 133.3 6.9 133.293 7.02C133.293 7.13333 133.293 7.25 133.293 7.37C133.293 7.49 133.293 7.60667 133.293 7.72C133.3 7.83333 133.307 7.93333 133.313 8.02C133.347 8.41333 133.49 8.73 133.743 8.97C133.997 9.21 134.327 9.33 134.733 9.33C135.14 9.33 135.47 9.21 135.723 8.97C135.977 8.73 136.12 8.41333 136.153 8.02C136.16 7.93333 136.163 7.83333 136.163 7.72C136.163 7.60667 136.163 7.49 136.163 7.37C136.163 7.25 136.163 7.13333 136.163 7.02C136.163 6.9 136.16 6.79667 136.153 6.71C136.127 6.33667 135.987 6.03 135.733 5.79C135.487 5.55 135.153 5.43 134.733 5.43ZM141.746 2.9C141.859 2.9 141.956 2.94 142.036 3.02C142.116 3.1 142.156 3.19667 142.156 3.31V9.62C142.156 9.74 142.116 9.84 142.036 9.92C141.962 10 141.866 10.04 141.746 10.04C141.632 10.04 141.536 10 141.456 9.92C141.382 9.84 141.346 9.74 141.346 9.62V3.31C141.346 3.19667 141.382 3.1 141.456 3.02C141.536 2.94 141.632 2.9 141.746 2.9ZM146.032 4.67C146.339 4.67 146.626 4.72 146.892 4.82C147.159 4.91333 147.389 5.04667 147.582 5.22C147.782 5.39333 147.939 5.60333 148.052 5.85C148.172 6.09 148.242 6.35667 148.262 6.65C148.276 6.85667 148.282 7.09667 148.282 7.37C148.282 7.63667 148.276 7.87 148.262 8.07C148.242 8.36333 148.172 8.63333 148.052 8.88C147.939 9.12667 147.782 9.34 147.582 9.52C147.389 9.7 147.159 9.84 146.892 9.94C146.626 10.04 146.339 10.09 146.032 10.09C145.726 10.09 145.439 10.04 145.172 9.94C144.912 9.84 144.682 9.7 144.482 9.52C144.282 9.34 144.122 9.12667 144.002 8.88C143.889 8.63333 143.822 8.36333 143.802 8.07C143.796 7.97 143.789 7.86 143.782 7.74C143.782 7.61333 143.782 7.48667 143.782 7.36C143.782 7.23333 143.782 7.11 143.782 6.99C143.789 6.86333 143.796 6.75 143.802 6.65C143.822 6.35667 143.889 6.09 144.002 5.85C144.122 5.60333 144.282 5.39333 144.482 5.22C144.682 5.04667 144.912 4.91333 145.172 4.82C145.439 4.72 145.726 4.67 146.032 4.67ZM146.032 5.43C145.612 5.43 145.276 5.55 145.022 5.79C144.776 6.03 144.639 6.33667 144.612 6.71C144.606 6.79667 144.599 6.9 144.592 7.02C144.592 7.13333 144.592 7.25 144.592 7.37C144.592 7.49 144.592 7.60667 144.592 7.72C144.599 7.83333 144.606 7.93333 144.612 8.02C144.646 8.41333 144.789 8.73 145.042 8.97C145.296 9.21 145.626 9.33 146.032 9.33C146.439 9.33 146.769 9.21 147.022 8.97C147.276 8.73 147.419 8.41333 147.452 8.02C147.459 7.93333 147.462 7.83333 147.462 7.72C147.462 7.60667 147.462 7.49 147.462 7.37C147.462 7.25 147.462 7.13333 147.462 7.02C147.462 6.9 147.459 6.79667 147.452 6.71C147.426 6.33667 147.286 6.03 147.032 5.79C146.786 5.55 146.452 5.43 146.032 5.43ZM151.873 9.33C152.133 9.33 152.379 9.26333 152.613 9.13C152.853 8.99 153.033 8.77333 153.153 8.48C153.199 8.38 153.253 8.31 153.313 8.27C153.379 8.23 153.456 8.21 153.543 8.21C153.649 8.21 153.739 8.25 153.813 8.33C153.886 8.40333 153.923 8.5 153.923 8.62C153.923 8.73333 153.879 8.87667 153.793 9.05C153.713 9.21667 153.586 9.37667 153.413 9.53C153.246 9.68333 153.033 9.81667 152.773 9.93C152.513 10.0367 152.209 10.09 151.863 10.09C151.543 10.09 151.246 10.04 150.973 9.94C150.706 9.83333 150.476 9.69 150.283 9.51C150.089 9.32333 149.936 9.10667 149.823 8.86C149.709 8.61333 149.643 8.35 149.623 8.07C149.616 7.97 149.609 7.86 149.603 7.74C149.603 7.61333 149.603 7.48667 149.603 7.36C149.603 7.23333 149.603 7.11 149.603 6.99C149.609 6.86333 149.616 6.75 149.623 6.65C149.643 6.35667 149.709 6.09 149.823 5.85C149.943 5.60333 150.099 5.39333 150.293 5.22C150.493 5.04667 150.726 4.91333 150.993 4.82C151.259 4.72 151.549 4.67 151.863 4.67C152.209 4.67 152.509 4.72667 152.763 4.84C153.023 4.94667 153.236 5.08 153.403 5.24C153.569 5.39333 153.693 5.55333 153.773 5.72C153.859 5.88667 153.903 6.02667 153.903 6.14C153.903 6.26 153.866 6.36 153.793 6.44C153.719 6.51333 153.629 6.55 153.523 6.55C153.443 6.55 153.369 6.53 153.303 6.49C153.236 6.45 153.179 6.38 153.133 6.28C153.019 5.98667 152.846 5.77333 152.613 5.64C152.379 5.5 152.133 5.43 151.873 5.43C151.453 5.43 151.116 5.54667 150.863 5.78C150.609 6.00667 150.466 6.31333 150.433 6.7C150.426 6.76667 150.419 6.85667 150.413 6.97C150.413 7.08333 150.413 7.20333 150.413 7.33C150.413 7.45667 150.413 7.58333 150.413 7.71C150.419 7.83 150.426 7.93333 150.433 8.02C150.466 8.39333 150.603 8.70667 150.843 8.96C151.089 9.20667 151.433 9.33 151.873 9.33ZM159.269 9.2C159.269 9.27333 159.256 9.33667 159.229 9.39C159.209 9.44333 159.166 9.49 159.099 9.53C159.032 9.58333 158.932 9.64333 158.799 9.71C158.672 9.77 158.519 9.83 158.339 9.89C158.166 9.94333 157.969 9.99 157.749 10.03C157.529 10.07 157.299 10.09 157.059 10.09C156.399 10.09 155.899 9.93333 155.559 9.62C155.226 9.3 155.059 8.89 155.059 8.39C155.059 8.17 155.099 7.96333 155.179 7.77C155.266 7.57 155.392 7.39667 155.559 7.25C155.726 7.10333 155.932 6.98667 156.179 6.9C156.432 6.81333 156.729 6.77 157.069 6.77C157.309 6.77 157.536 6.78667 157.749 6.82C157.969 6.85333 158.209 6.90667 158.469 6.98V6.57C158.469 6.16333 158.366 5.87 158.159 5.69C157.959 5.51 157.646 5.42 157.219 5.42C156.986 5.42 156.766 5.45 156.559 5.51C156.352 5.57 156.176 5.62667 156.029 5.68C155.856 5.74667 155.716 5.74333 155.609 5.67C155.502 5.59667 155.449 5.49667 155.449 5.37C155.449 5.29667 155.469 5.22667 155.509 5.16C155.549 5.09333 155.616 5.03667 155.709 4.99C155.862 4.91667 156.079 4.84667 156.359 4.78C156.646 4.70667 156.959 4.67 157.299 4.67C157.599 4.67 157.869 4.70667 158.109 4.78C158.349 4.85333 158.556 4.96667 158.729 5.12C158.902 5.26667 159.036 5.46 159.129 5.7C159.222 5.93333 159.269 6.21333 159.269 6.54V9.2ZM157.149 9.36C157.349 9.36 157.526 9.34667 157.679 9.32C157.839 9.28667 157.972 9.25 158.079 9.21C158.186 9.17 158.272 9.13 158.339 9.09C158.406 9.04333 158.449 9.01 158.469 8.99V7.68C158.216 7.61333 157.982 7.56 157.769 7.52C157.562 7.48 157.332 7.46 157.079 7.46C156.739 7.46 156.452 7.54 156.219 7.7C155.986 7.85333 155.869 8.07667 155.869 8.37C155.869 8.69 155.972 8.93667 156.179 9.11C156.392 9.27667 156.716 9.36 157.149 9.36ZM163.504 9.92C163.371 9.97333 163.214 10.0133 163.034 10.04C162.854 10.0733 162.668 10.09 162.474 10.09C162.208 10.09 161.978 10.05 161.784 9.97C161.591 9.88333 161.431 9.76667 161.304 9.62C161.178 9.47333 161.084 9.3 161.024 9.1C160.964 8.89333 160.934 8.67333 160.934 8.44V4.09C160.934 3.97667 160.971 3.88 161.044 3.8C161.124 3.72 161.221 3.68 161.334 3.68C161.448 3.68 161.544 3.72 161.624 3.8C161.704 3.88 161.744 3.97667 161.744 4.09V4.91H163.254C163.354 4.91 163.441 4.94667 163.514 5.02C163.594 5.08667 163.634 5.17333 163.634 5.28C163.634 5.38667 163.594 5.47667 163.514 5.55C163.441 5.61667 163.354 5.65 163.254 5.65H161.744V8.47C161.744 8.72333 161.804 8.93333 161.924 9.1C162.044 9.26 162.241 9.34 162.514 9.34C162.661 9.34 162.801 9.32 162.934 9.28C163.068 9.23333 163.194 9.19333 163.314 9.16C163.481 9.12 163.608 9.14 163.694 9.22C163.788 9.3 163.834 9.40333 163.834 9.53C163.834 9.71667 163.724 9.84667 163.504 9.92ZM169.207 7.14C169.207 7.31333 169.161 7.45333 169.067 7.56C168.974 7.66667 168.824 7.72 168.617 7.72H165.627V7.88C165.627 8.35333 165.764 8.71667 166.037 8.97C166.317 9.22333 166.677 9.35 167.117 9.35C167.297 9.35 167.487 9.32667 167.687 9.28C167.894 9.23333 168.111 9.17 168.337 9.09C168.424 9.05667 168.504 9.04333 168.577 9.05C168.651 9.05667 168.711 9.07667 168.757 9.11C168.811 9.14333 168.851 9.18667 168.877 9.24C168.904 9.29333 168.917 9.35 168.917 9.41C168.917 9.47667 168.901 9.54 168.867 9.6C168.841 9.66 168.784 9.71667 168.697 9.77C168.617 9.81667 168.514 9.86 168.387 9.9C168.267 9.94 168.134 9.97333 167.987 10C167.847 10.0267 167.701 10.0467 167.547 10.06C167.394 10.08 167.247 10.09 167.107 10.09C166.761 10.09 166.451 10.04 166.177 9.94C165.904 9.83333 165.671 9.68667 165.477 9.5C165.284 9.30667 165.134 9.08 165.027 8.82C164.921 8.55333 164.857 8.26 164.837 7.94C164.824 7.74667 164.817 7.53667 164.817 7.31C164.824 7.08333 164.834 6.89333 164.847 6.74C164.874 6.42 164.947 6.13333 165.067 5.88C165.187 5.62 165.344 5.4 165.537 5.22C165.731 5.04 165.954 4.90333 166.207 4.81C166.467 4.71667 166.751 4.67 167.057 4.67C167.384 4.67 167.681 4.72333 167.947 4.83C168.214 4.93667 168.441 5.08667 168.627 5.28C168.814 5.47333 168.957 5.70333 169.057 5.97C169.157 6.23 169.207 6.52 169.207 6.84V7.14ZM168.287 7.04C168.361 7.04 168.404 7 168.417 6.92C168.431 6.69333 168.407 6.48667 168.347 6.3C168.294 6.11333 168.207 5.95333 168.087 5.82C167.967 5.68667 167.821 5.58333 167.647 5.51C167.474 5.43667 167.281 5.4 167.067 5.4C166.574 5.4 166.207 5.55 165.967 5.85C165.727 6.14333 165.614 6.54 165.627 7.04H168.287ZM172.834 5.33C172.774 5.17667 172.784 5.04333 172.864 4.93C172.944 4.81 173.061 4.75 173.214 4.75C173.314 4.75 173.391 4.77667 173.444 4.83C173.504 4.88333 173.554 4.95333 173.594 5.04L175.144 8.61C175.171 8.66333 175.198 8.66333 175.224 8.61L176.634 5.07C176.668 4.97667 176.718 4.9 176.784 4.84C176.851 4.78 176.934 4.75 177.034 4.75C177.188 4.75 177.304 4.81333 177.384 4.94C177.464 5.06 177.474 5.19 177.414 5.33L175.534 9.89C175.341 10.35 175.114 10.7467 174.854 11.08C174.601 11.42 174.364 11.6567 174.144 11.79C174.011 11.87 173.891 11.91 173.784 11.91C173.678 11.91 173.584 11.8733 173.504 11.8C173.424 11.7333 173.384 11.6433 173.384 11.53C173.384 11.4633 173.401 11.3967 173.434 11.33C173.468 11.2633 173.514 11.2133 173.574 11.18C173.788 11.06 174.001 10.8767 174.214 10.63C174.428 10.39 174.601 10.07 174.734 9.67L172.834 5.33ZM180.495 4.67C180.802 4.67 181.088 4.72 181.355 4.82C181.622 4.91333 181.852 5.04667 182.045 5.22C182.245 5.39333 182.402 5.60333 182.515 5.85C182.635 6.09 182.705 6.35667 182.725 6.65C182.738 6.85667 182.745 7.09667 182.745 7.37C182.745 7.63667 182.738 7.87 182.725 8.07C182.705 8.36333 182.635 8.63333 182.515 8.88C182.402 9.12667 182.245 9.34 182.045 9.52C181.852 9.7 181.622 9.84 181.355 9.94C181.088 10.04 180.802 10.09 180.495 10.09C180.188 10.09 179.902 10.04 179.635 9.94C179.375 9.84 179.145 9.7 178.945 9.52C178.745 9.34 178.585 9.12667 178.465 8.88C178.352 8.63333 178.285 8.36333 178.265 8.07C178.258 7.97 178.252 7.86 178.245 7.74C178.245 7.61333 178.245 7.48667 178.245 7.36C178.245 7.23333 178.245 7.11 178.245 6.99C178.252 6.86333 178.258 6.75 178.265 6.65C178.285 6.35667 178.352 6.09 178.465 5.85C178.585 5.60333 178.745 5.39333 178.945 5.22C179.145 5.04667 179.375 4.91333 179.635 4.82C179.902 4.72 180.188 4.67 180.495 4.67ZM180.495 5.43C180.075 5.43 179.738 5.55 179.485 5.79C179.238 6.03 179.102 6.33667 179.075 6.71C179.068 6.79667 179.062 6.9 179.055 7.02C179.055 7.13333 179.055 7.25 179.055 7.37C179.055 7.49 179.055 7.60667 179.055 7.72C179.062 7.83333 179.068 7.93333 179.075 8.02C179.108 8.41333 179.252 8.73 179.505 8.97C179.758 9.21 180.088 9.33 180.495 9.33C180.902 9.33 181.232 9.21 181.485 8.97C181.738 8.73 181.882 8.41333 181.915 8.02C181.922 7.93333 181.925 7.83333 181.925 7.72C181.925 7.60667 181.925 7.49 181.925 7.37C181.925 7.25 181.925 7.13333 181.925 7.02C181.925 6.9 181.922 6.79667 181.915 6.71C181.888 6.33667 181.748 6.03 181.495 5.79C181.248 5.55 180.915 5.43 180.495 5.43ZM184.293 5.16C184.293 5.04667 184.33 4.95 184.403 4.87C184.483 4.78333 184.58 4.74 184.693 4.74C184.806 4.74 184.903 4.78333 184.983 4.87C185.063 4.95 185.103 5.04667 185.103 5.16V8.06C185.103 8.45333 185.22 8.76333 185.453 8.99C185.693 9.21 186.023 9.32 186.443 9.32C186.763 9.32 187.036 9.28333 187.263 9.21C187.49 9.13 187.676 9.04333 187.823 8.95V5.16C187.823 5.04667 187.86 4.95 187.933 4.87C188.013 4.78333 188.11 4.74 188.223 4.74C188.336 4.74 188.433 4.78333 188.513 4.87C188.593 4.95 188.633 5.04667 188.633 5.16V9.16C188.633 9.30667 188.576 9.41667 188.463 9.49C188.39 9.54333 188.29 9.60667 188.163 9.68C188.043 9.74667 187.896 9.81 187.723 9.87C187.556 9.93 187.366 9.98 187.153 10.02C186.94 10.0667 186.703 10.09 186.443 10.09C186.123 10.09 185.83 10.0467 185.563 9.96C185.303 9.86667 185.076 9.73333 184.883 9.56C184.696 9.38667 184.55 9.17333 184.443 8.92C184.343 8.66667 184.293 8.37667 184.293 8.05V5.16ZM192.897 4.78C193.11 4.83333 193.217 4.96 193.217 5.16C193.217 5.24 193.184 5.32333 193.117 5.41C193.057 5.49 192.957 5.53 192.817 5.53C192.717 5.53 192.604 5.51667 192.477 5.49C192.35 5.46333 192.2 5.45 192.027 5.45C191.747 5.45667 191.54 5.53333 191.407 5.68C191.28 5.82 191.217 6.04333 191.217 6.35V9.63C191.217 9.74333 191.177 9.84 191.097 9.92C191.017 10 190.92 10.04 190.807 10.04C190.694 10.04 190.597 10 190.517 9.92C190.437 9.84 190.397 9.74333 190.397 9.63V6.26C190.397 5.76667 190.537 5.38 190.817 5.1C191.097 4.81333 191.5 4.67 192.027 4.67C192.2 4.67 192.364 4.68 192.517 4.7C192.677 4.72 192.804 4.74667 192.897 4.78ZM201.331 8.1C201.277 8.72667 201.064 9.21667 200.691 9.57C200.317 9.91667 199.797 10.09 199.131 10.09C198.877 10.09 198.631 10.0567 198.391 9.99C198.157 9.92333 197.954 9.85 197.781 9.77V11.52C197.781 11.6333 197.741 11.73 197.661 11.81C197.587 11.8967 197.494 11.94 197.381 11.94C197.267 11.94 197.171 11.8967 197.091 11.81C197.011 11.73 196.971 11.6333 196.971 11.52V5.59C196.971 5.52333 196.981 5.46667 197.001 5.42C197.021 5.37333 197.064 5.32667 197.131 5.28C197.191 5.23333 197.287 5.17667 197.421 5.11C197.554 5.04333 197.711 4.97667 197.891 4.91C198.071 4.84333 198.267 4.78667 198.481 4.74C198.701 4.69333 198.927 4.67 199.161 4.67C199.814 4.67 200.324 4.85333 200.691 5.22C201.064 5.58 201.277 6.07 201.331 6.69C201.337 6.77667 201.341 6.88333 201.341 7.01C201.347 7.13667 201.351 7.26667 201.351 7.4C201.351 7.52667 201.347 7.65333 201.341 7.78C201.341 7.90667 201.337 8.01333 201.331 8.1ZM200.511 6.75C200.431 5.87 199.977 5.43 199.151 5.43C199.024 5.43 198.891 5.44333 198.751 5.47C198.617 5.49667 198.487 5.53 198.361 5.57C198.234 5.61 198.121 5.65667 198.021 5.71C197.921 5.75667 197.841 5.8 197.781 5.84V8.96C197.834 8.99333 197.907 9.03333 198.001 9.08C198.094 9.12 198.197 9.16 198.311 9.2C198.431 9.23333 198.557 9.26333 198.691 9.29C198.831 9.31667 198.971 9.33 199.111 9.33C199.571 9.33 199.911 9.22333 200.131 9.01C200.351 8.79 200.477 8.47333 200.511 8.06C200.517 7.98667 200.521 7.89333 200.521 7.78C200.527 7.66667 200.531 7.54667 200.531 7.42C200.531 7.29333 200.527 7.17333 200.521 7.06C200.521 6.94 200.517 6.83667 200.511 6.75ZM205.407 4.78C205.62 4.83333 205.727 4.96 205.727 5.16C205.727 5.24 205.693 5.32333 205.627 5.41C205.567 5.49 205.467 5.53 205.327 5.53C205.227 5.53 205.113 5.51667 204.987 5.49C204.86 5.46333 204.71 5.45 204.537 5.45C204.257 5.45667 204.05 5.53333 203.917 5.68C203.79 5.82 203.727 6.04333 203.727 6.35V9.63C203.727 9.74333 203.687 9.84 203.607 9.92C203.527 10 203.43 10.04 203.317 10.04C203.203 10.04 203.107 10 203.027 9.92C202.947 9.84 202.907 9.74333 202.907 9.63V6.26C202.907 5.76667 203.047 5.38 203.327 5.1C203.607 4.81333 204.01 4.67 204.537 4.67C204.71 4.67 204.873 4.68 205.027 4.7C205.187 4.72 205.313 4.74667 205.407 4.78ZM208.737 4.67C209.044 4.67 209.331 4.72 209.597 4.82C209.864 4.91333 210.094 5.04667 210.287 5.22C210.487 5.39333 210.644 5.60333 210.757 5.85C210.877 6.09 210.947 6.35667 210.967 6.65C210.981 6.85667 210.987 7.09667 210.987 7.37C210.987 7.63667 210.981 7.87 210.967 8.07C210.947 8.36333 210.877 8.63333 210.757 8.88C210.644 9.12667 210.487 9.34 210.287 9.52C210.094 9.7 209.864 9.84 209.597 9.94C209.331 10.04 209.044 10.09 208.737 10.09C208.431 10.09 208.144 10.04 207.877 9.94C207.617 9.84 207.387 9.7 207.187 9.52C206.987 9.34 206.827 9.12667 206.707 8.88C206.594 8.63333 206.527 8.36333 206.507 8.07C206.501 7.97 206.494 7.86 206.487 7.74C206.487 7.61333 206.487 7.48667 206.487 7.36C206.487 7.23333 206.487 7.11 206.487 6.99C206.494 6.86333 206.501 6.75 206.507 6.65C206.527 6.35667 206.594 6.09 206.707 5.85C206.827 5.60333 206.987 5.39333 207.187 5.22C207.387 5.04667 207.617 4.91333 207.877 4.82C208.144 4.72 208.431 4.67 208.737 4.67ZM208.737 5.43C208.317 5.43 207.981 5.55 207.727 5.79C207.481 6.03 207.344 6.33667 207.317 6.71C207.311 6.79667 207.304 6.9 207.297 7.02C207.297 7.13333 207.297 7.25 207.297 7.37C207.297 7.49 207.297 7.60667 207.297 7.72C207.304 7.83333 207.311 7.93333 207.317 8.02C207.351 8.41333 207.494 8.73 207.747 8.97C208.001 9.21 208.331 9.33 208.737 9.33C209.144 9.33 209.474 9.21 209.727 8.97C209.981 8.73 210.124 8.41333 210.157 8.02C210.164 7.93333 210.167 7.83333 210.167 7.72C210.167 7.60667 210.167 7.49 210.167 7.37C210.167 7.25 210.167 7.13333 210.167 7.02C210.167 6.9 210.164 6.79667 210.157 6.71C210.131 6.33667 209.991 6.03 209.737 5.79C209.491 5.55 209.157 5.43 208.737 5.43ZM216.965 8.1C216.912 8.72667 216.699 9.21667 216.325 9.57C215.952 9.91667 215.432 10.09 214.765 10.09C214.512 10.09 214.265 10.0567 214.025 9.99C213.792 9.92333 213.589 9.85 213.415 9.77V11.52C213.415 11.6333 213.375 11.73 213.295 11.81C213.222 11.8967 213.129 11.94 213.015 11.94C212.902 11.94 212.805 11.8967 212.725 11.81C212.645 11.73 212.605 11.6333 212.605 11.52V5.59C212.605 5.52333 212.615 5.46667 212.635 5.42C212.655 5.37333 212.699 5.32667 212.765 5.28C212.825 5.23333 212.922 5.17667 213.055 5.11C213.189 5.04333 213.345 4.97667 213.525 4.91C213.705 4.84333 213.902 4.78667 214.115 4.74C214.335 4.69333 214.562 4.67 214.795 4.67C215.449 4.67 215.959 4.85333 216.325 5.22C216.699 5.58 216.912 6.07 216.965 6.69C216.972 6.77667 216.975 6.88333 216.975 7.01C216.982 7.13667 216.985 7.26667 216.985 7.4C216.985 7.52667 216.982 7.65333 216.975 7.78C216.975 7.90667 216.972 8.01333 216.965 8.1ZM216.145 6.75C216.065 5.87 215.612 5.43 214.785 5.43C214.659 5.43 214.525 5.44333 214.385 5.47C214.252 5.49667 214.122 5.53 213.995 5.57C213.869 5.61 213.755 5.65667 213.655 5.71C213.555 5.75667 213.475 5.8 213.415 5.84V8.96C213.469 8.99333 213.542 9.03333 213.635 9.08C213.729 9.12 213.832 9.16 213.945 9.2C214.065 9.23333 214.192 9.26333 214.325 9.29C214.465 9.31667 214.605 9.33 214.745 9.33C215.205 9.33 215.545 9.22333 215.765 9.01C215.985 8.79 216.112 8.47333 216.145 8.06C216.152 7.98667 216.155 7.89333 216.155 7.78C216.162 7.66667 216.165 7.54667 216.165 7.42C216.165 7.29333 216.162 7.17333 216.155 7.06C216.155 6.94 216.152 6.83667 216.145 6.75ZM222.694 7.14C222.694 7.31333 222.647 7.45333 222.554 7.56C222.46 7.66667 222.31 7.72 222.104 7.72H219.114V7.88C219.114 8.35333 219.25 8.71667 219.524 8.97C219.804 9.22333 220.164 9.35 220.604 9.35C220.784 9.35 220.974 9.32667 221.174 9.28C221.38 9.23333 221.597 9.17 221.824 9.09C221.91 9.05667 221.99 9.04333 222.064 9.05C222.137 9.05667 222.197 9.07667 222.244 9.11C222.297 9.14333 222.337 9.18667 222.364 9.24C222.39 9.29333 222.404 9.35 222.404 9.41C222.404 9.47667 222.387 9.54 222.354 9.6C222.327 9.66 222.27 9.71667 222.184 9.77C222.104 9.81667 222 9.86 221.874 9.9C221.754 9.94 221.62 9.97333 221.474 10C221.334 10.0267 221.187 10.0467 221.034 10.06C220.88 10.08 220.734 10.09 220.594 10.09C220.247 10.09 219.937 10.04 219.664 9.94C219.39 9.83333 219.157 9.68667 218.964 9.5C218.77 9.30667 218.62 9.08 218.514 8.82C218.407 8.55333 218.344 8.26 218.324 7.94C218.31 7.74667 218.304 7.53667 218.304 7.31C218.31 7.08333 218.32 6.89333 218.334 6.74C218.36 6.42 218.434 6.13333 218.554 5.88C218.674 5.62 218.83 5.4 219.024 5.22C219.217 5.04 219.44 4.90333 219.694 4.81C219.954 4.71667 220.237 4.67 220.544 4.67C220.87 4.67 221.167 4.72333 221.434 4.83C221.7 4.93667 221.927 5.08667 222.114 5.28C222.3 5.47333 222.444 5.70333 222.544 5.97C222.644 6.23 222.694 6.52 222.694 6.84V7.14ZM221.774 7.04C221.847 7.04 221.89 7 221.904 6.92C221.917 6.69333 221.894 6.48667 221.834 6.3C221.78 6.11333 221.694 5.95333 221.574 5.82C221.454 5.68667 221.307 5.58333 221.134 5.51C220.96 5.43667 220.767 5.4 220.554 5.4C220.06 5.4 219.694 5.55 219.454 5.85C219.214 6.14333 219.1 6.54 219.114 7.04H221.774ZM226.666 4.78C226.88 4.83333 226.986 4.96 226.986 5.16C226.986 5.24 226.953 5.32333 226.886 5.41C226.826 5.49 226.726 5.53 226.586 5.53C226.486 5.53 226.373 5.51667 226.246 5.49C226.12 5.46333 225.97 5.45 225.796 5.45C225.516 5.45667 225.31 5.53333 225.176 5.68C225.05 5.82 224.986 6.04333 224.986 6.35V9.63C224.986 9.74333 224.946 9.84 224.866 9.92C224.786 10 224.69 10.04 224.576 10.04C224.463 10.04 224.366 10 224.286 9.92C224.206 9.84 224.166 9.74333 224.166 9.63V6.26C224.166 5.76667 224.306 5.38 224.586 5.1C224.866 4.81333 225.27 4.67 225.796 4.67C225.97 4.67 226.133 4.68 226.286 4.7C226.446 4.72 226.573 4.74667 226.666 4.78ZM230.526 9.92C230.392 9.97333 230.236 10.0133 230.056 10.04C229.876 10.0733 229.689 10.09 229.496 10.09C229.229 10.09 228.999 10.05 228.806 9.97C228.612 9.88333 228.452 9.76667 228.326 9.62C228.199 9.47333 228.106 9.3 228.046 9.1C227.986 8.89333 227.956 8.67333 227.956 8.44V4.09C227.956 3.97667 227.992 3.88 228.066 3.8C228.146 3.72 228.242 3.68 228.356 3.68C228.469 3.68 228.566 3.72 228.646 3.8C228.726 3.88 228.766 3.97667 228.766 4.09V4.91H230.276C230.376 4.91 230.462 4.94667 230.536 5.02C230.616 5.08667 230.656 5.17333 230.656 5.28C230.656 5.38667 230.616 5.47667 230.536 5.55C230.462 5.61667 230.376 5.65 230.276 5.65H228.766V8.47C228.766 8.72333 228.826 8.93333 228.946 9.1C229.066 9.26 229.262 9.34 229.536 9.34C229.682 9.34 229.822 9.32 229.956 9.28C230.089 9.23333 230.216 9.19333 230.336 9.16C230.502 9.12 230.629 9.14 230.716 9.22C230.809 9.3 230.856 9.40333 230.856 9.53C230.856 9.71667 230.746 9.84667 230.526 9.92ZM231.702 5.33C231.642 5.17667 231.652 5.04333 231.732 4.93C231.812 4.81 231.928 4.75 232.082 4.75C232.182 4.75 232.258 4.77667 232.312 4.83C232.372 4.88333 232.422 4.95333 232.462 5.04L234.012 8.61C234.038 8.66333 234.065 8.66333 234.092 8.61L235.502 5.07C235.535 4.97667 235.585 4.9 235.652 4.84C235.718 4.78 235.802 4.75 235.902 4.75C236.055 4.75 236.172 4.81333 236.252 4.94C236.332 5.06 236.342 5.19 236.282 5.33L234.402 9.89C234.208 10.35 233.982 10.7467 233.722 11.08C233.468 11.42 233.232 11.6567 233.012 11.79C232.878 11.87 232.758 11.91 232.652 11.91C232.545 11.91 232.452 11.8733 232.372 11.8C232.292 11.7333 232.252 11.6433 232.252 11.53C232.252 11.4633 232.268 11.3967 232.302 11.33C232.335 11.2633 232.382 11.2133 232.442 11.18C232.655 11.06 232.868 10.8767 233.082 10.63C233.295 10.39 233.468 10.07 233.602 9.67L231.702 5.33ZM244.093 9.2C244.093 9.27333 244.08 9.33667 244.053 9.39C244.033 9.44333 243.99 9.49 243.923 9.53C243.857 9.58333 243.757 9.64333 243.623 9.71C243.497 9.77 243.343 9.83 243.163 9.89C242.99 9.94333 242.793 9.99 242.573 10.03C242.353 10.07 242.123 10.09 241.883 10.09C241.223 10.09 240.723 9.93333 240.383 9.62C240.05 9.3 239.883 8.89 239.883 8.39C239.883 8.17 239.923 7.96333 240.003 7.77C240.09 7.57 240.217 7.39667 240.383 7.25C240.55 7.10333 240.757 6.98667 241.003 6.9C241.257 6.81333 241.553 6.77 241.893 6.77C242.133 6.77 242.36 6.78667 242.573 6.82C242.793 6.85333 243.033 6.90667 243.293 6.98V6.57C243.293 6.16333 243.19 5.87 242.983 5.69C242.783 5.51 242.47 5.42 242.043 5.42C241.81 5.42 241.59 5.45 241.383 5.51C241.177 5.57 241 5.62667 240.853 5.68C240.68 5.74667 240.54 5.74333 240.433 5.67C240.327 5.59667 240.273 5.49667 240.273 5.37C240.273 5.29667 240.293 5.22667 240.333 5.16C240.373 5.09333 240.44 5.03667 240.533 4.99C240.687 4.91667 240.903 4.84667 241.183 4.78C241.47 4.70667 241.783 4.67 242.123 4.67C242.423 4.67 242.693 4.70667 242.933 4.78C243.173 4.85333 243.38 4.96667 243.553 5.12C243.727 5.26667 243.86 5.46 243.953 5.7C244.047 5.93333 244.093 6.21333 244.093 6.54V9.2ZM241.973 9.36C242.173 9.36 242.35 9.34667 242.503 9.32C242.663 9.28667 242.797 9.25 242.903 9.21C243.01 9.17 243.097 9.13 243.163 9.09C243.23 9.04333 243.273 9.01 243.293 8.99V7.68C243.04 7.61333 242.807 7.56 242.593 7.52C242.387 7.48 242.157 7.46 241.903 7.46C241.563 7.46 241.277 7.54 241.043 7.7C240.81 7.85333 240.693 8.07667 240.693 8.37C240.693 8.69 240.797 8.93667 241.003 9.11C241.217 9.27667 241.54 9.36 241.973 9.36ZM250.148 9.62C250.148 9.74 250.112 9.84 250.038 9.92C249.965 10 249.868 10.04 249.748 10.04C249.635 10.04 249.538 10 249.458 9.92C249.378 9.84 249.338 9.74 249.338 9.62V6.75C249.338 6.52333 249.302 6.32667 249.228 6.16C249.155 5.99333 249.058 5.85667 248.938 5.75C248.818 5.64333 248.675 5.56667 248.508 5.52C248.348 5.46667 248.178 5.44 247.998 5.44C247.718 5.44 247.452 5.47667 247.198 5.55C246.945 5.61667 246.752 5.69 246.618 5.77V9.62C246.618 9.74 246.578 9.84 246.498 9.92C246.425 10 246.332 10.04 246.218 10.04C246.105 10.04 246.008 10 245.928 9.92C245.848 9.84 245.808 9.74 245.808 9.62V5.57C245.808 5.47667 245.822 5.40667 245.848 5.36C245.882 5.30667 245.928 5.25667 245.988 5.21C246.055 5.15667 246.152 5.1 246.278 5.04C246.405 4.97333 246.552 4.91333 246.718 4.86C246.892 4.80667 247.085 4.76333 247.298 4.73C247.518 4.69 247.758 4.67 248.018 4.67C248.725 4.67 249.255 4.84667 249.608 5.2C249.968 5.54667 250.148 6.05 250.148 6.71V9.62ZM251.732 6.66C251.786 6.03333 251.989 5.54667 252.342 5.2C252.696 4.84667 253.192 4.67 253.832 4.67C254.106 4.67 254.369 4.70333 254.622 4.77C254.876 4.83667 255.092 4.91 255.272 4.99V3.31C255.272 3.19667 255.309 3.1 255.382 3.02C255.462 2.93333 255.559 2.89 255.672 2.89C255.792 2.89 255.889 2.93333 255.962 3.02C256.042 3.1 256.082 3.19667 256.082 3.31V9.16C256.082 9.23333 256.072 9.29333 256.052 9.34C256.032 9.38667 255.986 9.43667 255.912 9.49C255.852 9.53 255.759 9.58667 255.632 9.66C255.506 9.72667 255.352 9.79333 255.172 9.86C254.999 9.92 254.806 9.97333 254.592 10.02C254.386 10.0667 254.169 10.09 253.942 10.09C253.276 10.09 252.752 9.91 252.372 9.55C251.999 9.18333 251.786 8.69 251.732 8.07C251.726 7.98333 251.719 7.88 251.712 7.76C251.712 7.63333 251.712 7.50333 251.712 7.37C251.712 7.23667 251.712 7.11 251.712 6.99C251.719 6.86333 251.726 6.75333 251.732 6.66ZM252.542 8.01C252.622 8.89 253.092 9.33 253.952 9.33C254.072 9.33 254.199 9.31667 254.332 9.29C254.466 9.26333 254.592 9.23 254.712 9.19C254.832 9.15 254.942 9.10667 255.042 9.06C255.142 9.00667 255.219 8.96 255.272 8.92V5.78C255.152 5.70667 254.962 5.63 254.702 5.55C254.442 5.47 254.162 5.43 253.862 5.43C253.429 5.43 253.109 5.54 252.902 5.76C252.696 5.97333 252.576 6.28667 252.542 6.7C252.536 6.77333 252.529 6.86667 252.522 6.98C252.522 7.09333 252.522 7.21333 252.522 7.34C252.522 7.46667 252.522 7.59 252.522 7.71C252.529 7.82333 252.536 7.92333 252.542 8.01ZM263.162 9.92C263.029 9.97333 262.872 10.0133 262.692 10.04C262.512 10.0733 262.326 10.09 262.132 10.09C261.866 10.09 261.636 10.05 261.442 9.97C261.249 9.88333 261.089 9.76667 260.962 9.62C260.836 9.47333 260.742 9.3 260.682 9.1C260.622 8.89333 260.592 8.67333 260.592 8.44V4.09C260.592 3.97667 260.629 3.88 260.702 3.8C260.782 3.72 260.879 3.68 260.992 3.68C261.106 3.68 261.202 3.72 261.282 3.8C261.362 3.88 261.402 3.97667 261.402 4.09V4.91H262.912C263.012 4.91 263.099 4.94667 263.172 5.02C263.252 5.08667 263.292 5.17333 263.292 5.28C263.292 5.38667 263.252 5.47667 263.172 5.55C263.099 5.61667 263.012 5.65 262.912 5.65H261.402V8.47C261.402 8.72333 261.462 8.93333 261.582 9.1C261.702 9.26 261.899 9.34 262.172 9.34C262.319 9.34 262.459 9.32 262.592 9.28C262.726 9.23333 262.852 9.19333 262.972 9.16C263.139 9.12 263.266 9.14 263.352 9.22C263.446 9.3 263.492 9.40333 263.492 9.53C263.492 9.71667 263.382 9.84667 263.162 9.92ZM265.544 5.33C265.718 5.15 265.941 4.99667 266.214 4.87C266.494 4.73667 266.794 4.67 267.114 4.67C267.401 4.67 267.664 4.71333 267.904 4.8C268.151 4.88667 268.358 5.01667 268.524 5.19C268.698 5.35667 268.831 5.57 268.924 5.83C269.024 6.08333 269.074 6.37667 269.074 6.71V9.62C269.074 9.74 269.034 9.84 268.954 9.92C268.874 10 268.778 10.04 268.664 10.04C268.551 10.04 268.454 10 268.374 9.92C268.301 9.84 268.264 9.74 268.264 9.62V6.78C268.264 6.36 268.158 6.03333 267.944 5.8C267.731 5.56 267.424 5.44 267.024 5.44C266.724 5.44 266.441 5.51667 266.174 5.67C265.908 5.81667 265.698 5.99667 265.544 6.21V9.62C265.544 9.74 265.504 9.84 265.424 9.92C265.351 10 265.254 10.04 265.134 10.04C265.021 10.04 264.924 10 264.844 9.92C264.771 9.84 264.734 9.74 264.734 9.62V3.31C264.734 3.19667 264.771 3.1 264.844 3.02C264.924 2.93333 265.021 2.89 265.134 2.89C265.248 2.89 265.344 2.93333 265.424 3.02C265.504 3.1 265.544 3.19667 265.544 3.31V5.33ZM275.018 7.14C275.018 7.31333 274.971 7.45333 274.878 7.56C274.785 7.66667 274.635 7.72 274.428 7.72H271.438V7.88C271.438 8.35333 271.575 8.71667 271.848 8.97C272.128 9.22333 272.488 9.35 272.928 9.35C273.108 9.35 273.298 9.32667 273.498 9.28C273.705 9.23333 273.921 9.17 274.148 9.09C274.235 9.05667 274.315 9.04333 274.388 9.05C274.461 9.05667 274.521 9.07667 274.568 9.11C274.621 9.14333 274.661 9.18667 274.688 9.24C274.715 9.29333 274.728 9.35 274.728 9.41C274.728 9.47667 274.711 9.54 274.678 9.6C274.651 9.66 274.595 9.71667 274.508 9.77C274.428 9.81667 274.325 9.86 274.198 9.9C274.078 9.94 273.945 9.97333 273.798 10C273.658 10.0267 273.511 10.0467 273.358 10.06C273.205 10.08 273.058 10.09 272.918 10.09C272.571 10.09 272.261 10.04 271.988 9.94C271.715 9.83333 271.481 9.68667 271.288 9.5C271.095 9.30667 270.945 9.08 270.838 8.82C270.731 8.55333 270.668 8.26 270.648 7.94C270.635 7.74667 270.628 7.53667 270.628 7.31C270.635 7.08333 270.645 6.89333 270.658 6.74C270.685 6.42 270.758 6.13333 270.878 5.88C270.998 5.62 271.155 5.4 271.348 5.22C271.541 5.04 271.765 4.90333 272.018 4.81C272.278 4.71667 272.561 4.67 272.868 4.67C273.195 4.67 273.491 4.72333 273.758 4.83C274.025 4.93667 274.251 5.08667 274.438 5.28C274.625 5.47333 274.768 5.70333 274.868 5.97C274.968 6.23 275.018 6.52 275.018 6.84V7.14ZM274.098 7.04C274.171 7.04 274.215 7 274.228 6.92C274.241 6.69333 274.218 6.48667 274.158 6.3C274.105 6.11333 274.018 5.95333 273.898 5.82C273.778 5.68667 273.631 5.58333 273.458 5.51C273.285 5.43667 273.091 5.4 272.878 5.4C272.385 5.4 272.018 5.55 271.778 5.85C271.538 6.14333 271.425 6.54 271.438 7.04H274.098ZM283.645 6.65C283.652 6.74333 283.655 6.85333 283.655 6.98C283.662 7.10667 283.665 7.23667 283.665 7.37C283.665 7.49667 283.662 7.62333 283.655 7.75C283.655 7.87667 283.652 7.98333 283.645 8.07C283.592 8.69 283.375 9.18333 282.995 9.55C282.622 9.91 282.102 10.09 281.435 10.09C281.208 10.09 280.988 10.0667 280.775 10.02C280.568 9.97333 280.375 9.92 280.195 9.86C280.022 9.79333 279.868 9.72667 279.735 9.66C279.608 9.58667 279.515 9.53 279.455 9.49C279.382 9.43667 279.335 9.38667 279.315 9.34C279.302 9.29333 279.295 9.23333 279.295 9.16V3.31C279.295 3.19667 279.332 3.1 279.405 3.02C279.485 2.93333 279.582 2.89 279.695 2.89C279.808 2.89 279.905 2.93333 279.985 3.02C280.065 3.1 280.105 3.19667 280.105 3.31V4.99C280.285 4.91 280.498 4.83667 280.745 4.77C280.998 4.70333 281.265 4.67 281.545 4.67C282.185 4.67 282.682 4.84333 283.035 5.19C283.388 5.53667 283.592 6.02333 283.645 6.65ZM282.825 8.01C282.832 7.92333 282.835 7.82333 282.835 7.71C282.842 7.59 282.845 7.47 282.845 7.35C282.845 7.22333 282.842 7.10333 282.835 6.99C282.835 6.87667 282.832 6.78333 282.825 6.71C282.798 6.29 282.682 5.97333 282.475 5.76C282.268 5.54 281.948 5.43 281.515 5.43C281.215 5.43 280.935 5.47 280.675 5.55C280.415 5.63 280.225 5.70667 280.105 5.78V8.92C280.158 8.96 280.235 9.00667 280.335 9.06C280.435 9.10667 280.545 9.15 280.665 9.19C280.785 9.23 280.912 9.26333 281.045 9.29C281.178 9.31667 281.305 9.33 281.425 9.33C282.278 9.33 282.745 8.89 282.825 8.01ZM287.731 4.78C287.944 4.83333 288.051 4.96 288.051 5.16C288.051 5.24 288.018 5.32333 287.951 5.41C287.891 5.49 287.791 5.53 287.651 5.53C287.551 5.53 287.438 5.51667 287.311 5.49C287.184 5.46333 287.034 5.45 286.861 5.45C286.581 5.45667 286.374 5.53333 286.241 5.68C286.114 5.82 286.051 6.04333 286.051 6.35V9.63C286.051 9.74333 286.011 9.84 285.931 9.92C285.851 10 285.754 10.04 285.641 10.04C285.528 10.04 285.431 10 285.351 9.92C285.271 9.84 285.231 9.74333 285.231 9.63V6.26C285.231 5.76667 285.371 5.38 285.651 5.1C285.931 4.81333 286.334 4.67 286.861 4.67C287.034 4.67 287.198 4.68 287.351 4.7C287.511 4.72 287.638 4.74667 287.731 4.78ZM291.062 4.67C291.368 4.67 291.655 4.72 291.922 4.82C292.188 4.91333 292.418 5.04667 292.612 5.22C292.812 5.39333 292.968 5.60333 293.082 5.85C293.202 6.09 293.272 6.35667 293.292 6.65C293.305 6.85667 293.312 7.09667 293.312 7.37C293.312 7.63667 293.305 7.87 293.292 8.07C293.272 8.36333 293.202 8.63333 293.082 8.88C292.968 9.12667 292.812 9.34 292.612 9.52C292.418 9.7 292.188 9.84 291.922 9.94C291.655 10.04 291.368 10.09 291.062 10.09C290.755 10.09 290.468 10.04 290.202 9.94C289.942 9.84 289.712 9.7 289.512 9.52C289.312 9.34 289.152 9.12667 289.032 8.88C288.918 8.63333 288.852 8.36333 288.832 8.07C288.825 7.97 288.818 7.86 288.812 7.74C288.812 7.61333 288.812 7.48667 288.812 7.36C288.812 7.23333 288.812 7.11 288.812 6.99C288.818 6.86333 288.825 6.75 288.832 6.65C288.852 6.35667 288.918 6.09 289.032 5.85C289.152 5.60333 289.312 5.39333 289.512 5.22C289.712 5.04667 289.942 4.91333 290.202 4.82C290.468 4.72 290.755 4.67 291.062 4.67ZM291.062 5.43C290.642 5.43 290.305 5.55 290.052 5.79C289.805 6.03 289.668 6.33667 289.642 6.71C289.635 6.79667 289.628 6.9 289.622 7.02C289.622 7.13333 289.622 7.25 289.622 7.37C289.622 7.49 289.622 7.60667 289.622 7.72C289.628 7.83333 289.635 7.93333 289.642 8.02C289.675 8.41333 289.818 8.73 290.072 8.97C290.325 9.21 290.655 9.33 291.062 9.33C291.468 9.33 291.798 9.21 292.052 8.97C292.305 8.73 292.448 8.41333 292.482 8.02C292.488 7.93333 292.492 7.83333 292.492 7.72C292.492 7.60667 292.492 7.49 292.492 7.37C292.492 7.25 292.492 7.13333 292.492 7.02C292.492 6.9 292.488 6.79667 292.482 6.71C292.455 6.33667 292.315 6.03 292.062 5.79C291.815 5.55 291.482 5.43 291.062 5.43ZM298.83 9.2C298.83 9.27333 298.816 9.33667 298.79 9.39C298.77 9.44333 298.726 9.49 298.66 9.53C298.593 9.58333 298.493 9.64333 298.36 9.71C298.233 9.77 298.08 9.83 297.9 9.89C297.726 9.94333 297.53 9.99 297.31 10.03C297.09 10.07 296.86 10.09 296.62 10.09C295.96 10.09 295.46 9.93333 295.12 9.62C294.786 9.3 294.62 8.89 294.62 8.39C294.62 8.17 294.66 7.96333 294.74 7.77C294.826 7.57 294.953 7.39667 295.12 7.25C295.286 7.10333 295.493 6.98667 295.74 6.9C295.993 6.81333 296.29 6.77 296.63 6.77C296.87 6.77 297.096 6.78667 297.31 6.82C297.53 6.85333 297.77 6.90667 298.03 6.98V6.57C298.03 6.16333 297.926 5.87 297.72 5.69C297.52 5.51 297.206 5.42 296.78 5.42C296.546 5.42 296.326 5.45 296.12 5.51C295.913 5.57 295.736 5.62667 295.59 5.68C295.416 5.74667 295.276 5.74333 295.17 5.67C295.063 5.59667 295.01 5.49667 295.01 5.37C295.01 5.29667 295.03 5.22667 295.07 5.16C295.11 5.09333 295.176 5.03667 295.27 4.99C295.423 4.91667 295.64 4.84667 295.92 4.78C296.206 4.70667 296.52 4.67 296.86 4.67C297.16 4.67 297.43 4.70667 297.67 4.78C297.91 4.85333 298.116 4.96667 298.29 5.12C298.463 5.26667 298.596 5.46 298.69 5.7C298.783 5.93333 298.83 6.21333 298.83 6.54V9.2ZM296.71 9.36C296.91 9.36 297.086 9.34667 297.24 9.32C297.4 9.28667 297.533 9.25 297.64 9.21C297.746 9.17 297.833 9.13 297.9 9.09C297.966 9.04333 298.01 9.01 298.03 8.99V7.68C297.776 7.61333 297.543 7.56 297.33 7.52C297.123 7.48 296.893 7.46 296.64 7.46C296.3 7.46 296.013 7.54 295.78 7.7C295.546 7.85333 295.43 8.07667 295.43 8.37C295.43 8.69 295.533 8.93667 295.74 9.11C295.953 9.27667 296.276 9.36 296.71 9.36ZM300.375 6.66C300.428 6.03333 300.631 5.54667 300.985 5.2C301.338 4.84667 301.835 4.67 302.475 4.67C302.748 4.67 303.011 4.70333 303.265 4.77C303.518 4.83667 303.735 4.91 303.915 4.99V3.31C303.915 3.19667 303.951 3.1 304.025 3.02C304.105 2.93333 304.201 2.89 304.315 2.89C304.435 2.89 304.531 2.93333 304.605 3.02C304.685 3.1 304.725 3.19667 304.725 3.31V9.16C304.725 9.23333 304.715 9.29333 304.695 9.34C304.675 9.38667 304.628 9.43667 304.555 9.49C304.495 9.53 304.401 9.58667 304.275 9.66C304.148 9.72667 303.995 9.79333 303.815 9.86C303.641 9.92 303.448 9.97333 303.235 10.02C303.028 10.0667 302.811 10.09 302.585 10.09C301.918 10.09 301.395 9.91 301.015 9.55C300.641 9.18333 300.428 8.69 300.375 8.07C300.368 7.98333 300.361 7.88 300.355 7.76C300.355 7.63333 300.355 7.50333 300.355 7.37C300.355 7.23667 300.355 7.11 300.355 6.99C300.361 6.86333 300.368 6.75333 300.375 6.66ZM301.185 8.01C301.265 8.89 301.735 9.33 302.595 9.33C302.715 9.33 302.841 9.31667 302.975 9.29C303.108 9.26333 303.235 9.23 303.355 9.19C303.475 9.15 303.585 9.10667 303.685 9.06C303.785 9.00667 303.861 8.96 303.915 8.92V5.78C303.795 5.70667 303.605 5.63 303.345 5.55C303.085 5.47 302.805 5.43 302.505 5.43C302.071 5.43 301.751 5.54 301.545 5.76C301.338 5.97333 301.218 6.28667 301.185 6.7C301.178 6.77333 301.171 6.86667 301.165 6.98C301.165 7.09333 301.165 7.21333 301.165 7.34C301.165 7.46667 301.165 7.59 301.165 7.71C301.171 7.82333 301.178 7.92333 301.185 8.01ZM310.911 6.65C310.917 6.74333 310.921 6.85333 310.921 6.98C310.927 7.10667 310.931 7.23667 310.931 7.37C310.931 7.49667 310.927 7.62333 310.921 7.75C310.921 7.87667 310.917 7.98333 310.911 8.07C310.857 8.69 310.641 9.18333 310.261 9.55C309.887 9.91 309.367 10.09 308.701 10.09C308.474 10.09 308.254 10.0667 308.041 10.02C307.834 9.97333 307.641 9.92 307.461 9.86C307.287 9.79333 307.134 9.72667 307.001 9.66C306.874 9.58667 306.781 9.53 306.721 9.49C306.647 9.43667 306.601 9.38667 306.581 9.34C306.567 9.29333 306.561 9.23333 306.561 9.16V3.31C306.561 3.19667 306.597 3.1 306.671 3.02C306.751 2.93333 306.847 2.89 306.961 2.89C307.074 2.89 307.171 2.93333 307.251 3.02C307.331 3.1 307.371 3.19667 307.371 3.31V4.99C307.551 4.91 307.764 4.83667 308.011 4.77C308.264 4.70333 308.531 4.67 308.811 4.67C309.451 4.67 309.947 4.84333 310.301 5.19C310.654 5.53667 310.857 6.02333 310.911 6.65ZM310.091 8.01C310.097 7.92333 310.101 7.82333 310.101 7.71C310.107 7.59 310.111 7.47 310.111 7.35C310.111 7.22333 310.107 7.10333 310.101 6.99C310.101 6.87667 310.097 6.78333 310.091 6.71C310.064 6.29 309.947 5.97333 309.741 5.76C309.534 5.54 309.214 5.43 308.781 5.43C308.481 5.43 308.201 5.47 307.941 5.55C307.681 5.63 307.491 5.70667 307.371 5.78V8.92C307.424 8.96 307.501 9.00667 307.601 9.06C307.701 9.10667 307.811 9.15 307.931 9.19C308.051 9.23 308.177 9.26333 308.311 9.29C308.444 9.31667 308.571 9.33 308.691 9.33C309.544 9.33 310.011 8.89 310.091 8.01ZM316.456 9.2C316.456 9.27333 316.443 9.33667 316.416 9.39C316.396 9.44333 316.353 9.49 316.286 9.53C316.22 9.58333 316.12 9.64333 315.986 9.71C315.86 9.77 315.706 9.83 315.526 9.89C315.353 9.94333 315.156 9.99 314.936 10.03C314.716 10.07 314.486 10.09 314.246 10.09C313.586 10.09 313.086 9.93333 312.746 9.62C312.413 9.3 312.246 8.89 312.246 8.39C312.246 8.17 312.286 7.96333 312.366 7.77C312.453 7.57 312.58 7.39667 312.746 7.25C312.913 7.10333 313.12 6.98667 313.366 6.9C313.62 6.81333 313.916 6.77 314.256 6.77C314.496 6.77 314.723 6.78667 314.936 6.82C315.156 6.85333 315.396 6.90667 315.656 6.98V6.57C315.656 6.16333 315.553 5.87 315.346 5.69C315.146 5.51 314.833 5.42 314.406 5.42C314.173 5.42 313.953 5.45 313.746 5.51C313.54 5.57 313.363 5.62667 313.216 5.68C313.043 5.74667 312.903 5.74333 312.796 5.67C312.69 5.59667 312.636 5.49667 312.636 5.37C312.636 5.29667 312.656 5.22667 312.696 5.16C312.736 5.09333 312.803 5.03667 312.896 4.99C313.05 4.91667 313.266 4.84667 313.546 4.78C313.833 4.70667 314.146 4.67 314.486 4.67C314.786 4.67 315.056 4.70667 315.296 4.78C315.536 4.85333 315.743 4.96667 315.916 5.12C316.09 5.26667 316.223 5.46 316.316 5.7C316.41 5.93333 316.456 6.21333 316.456 6.54V9.2ZM314.336 9.36C314.536 9.36 314.713 9.34667 314.866 9.32C315.026 9.28667 315.16 9.25 315.266 9.21C315.373 9.17 315.46 9.13 315.526 9.09C315.593 9.04333 315.636 9.01 315.656 8.99V7.68C315.403 7.61333 315.17 7.56 314.956 7.52C314.75 7.48 314.52 7.46 314.266 7.46C313.926 7.46 313.64 7.54 313.406 7.7C313.173 7.85333 313.056 8.07667 313.056 8.37C313.056 8.69 313.16 8.93667 313.366 9.11C313.58 9.27667 313.903 9.36 314.336 9.36ZM322.512 9.62C322.512 9.74 322.475 9.84 322.402 9.92C322.328 10 322.232 10.04 322.112 10.04C321.998 10.04 321.902 10 321.822 9.92C321.742 9.84 321.702 9.74 321.702 9.62V6.75C321.702 6.52333 321.665 6.32667 321.592 6.16C321.518 5.99333 321.422 5.85667 321.302 5.75C321.182 5.64333 321.038 5.56667 320.872 5.52C320.712 5.46667 320.542 5.44 320.362 5.44C320.082 5.44 319.815 5.47667 319.562 5.55C319.308 5.61667 319.115 5.69 318.982 5.77V9.62C318.982 9.74 318.942 9.84 318.862 9.92C318.788 10 318.695 10.04 318.582 10.04C318.468 10.04 318.372 10 318.292 9.92C318.212 9.84 318.172 9.74 318.172 9.62V5.57C318.172 5.47667 318.185 5.40667 318.212 5.36C318.245 5.30667 318.292 5.25667 318.352 5.21C318.418 5.15667 318.515 5.1 318.642 5.04C318.768 4.97333 318.915 4.91333 319.082 4.86C319.255 4.80667 319.448 4.76333 319.662 4.73C319.882 4.69 320.122 4.67 320.382 4.67C321.088 4.67 321.618 4.84667 321.972 5.2C322.332 5.54667 322.512 6.05 322.512 6.71V9.62ZM324.095 6.66C324.149 6.03333 324.352 5.54667 324.705 5.2C325.059 4.84667 325.555 4.67 326.195 4.67C326.469 4.67 326.732 4.70333 326.985 4.77C327.239 4.83667 327.455 4.91 327.635 4.99V3.31C327.635 3.19667 327.672 3.1 327.745 3.02C327.825 2.93333 327.922 2.89 328.035 2.89C328.155 2.89 328.252 2.93333 328.325 3.02C328.405 3.1 328.445 3.19667 328.445 3.31V9.16C328.445 9.23333 328.435 9.29333 328.415 9.34C328.395 9.38667 328.349 9.43667 328.275 9.49C328.215 9.53 328.122 9.58667 327.995 9.66C327.869 9.72667 327.715 9.79333 327.535 9.86C327.362 9.92 327.169 9.97333 326.955 10.02C326.749 10.0667 326.532 10.09 326.305 10.09C325.639 10.09 325.115 9.91 324.735 9.55C324.362 9.18333 324.149 8.69 324.095 8.07C324.089 7.98333 324.082 7.88 324.075 7.76C324.075 7.63333 324.075 7.50333 324.075 7.37C324.075 7.23667 324.075 7.11 324.075 6.99C324.082 6.86333 324.089 6.75333 324.095 6.66ZM324.905 8.01C324.985 8.89 325.455 9.33 326.315 9.33C326.435 9.33 326.562 9.31667 326.695 9.29C326.829 9.26333 326.955 9.23 327.075 9.19C327.195 9.15 327.305 9.10667 327.405 9.06C327.505 9.00667 327.582 8.96 327.635 8.92V5.78C327.515 5.70667 327.325 5.63 327.065 5.55C326.805 5.47 326.525 5.43 326.225 5.43C325.792 5.43 325.472 5.54 325.265 5.76C325.059 5.97333 324.939 6.28667 324.905 6.7C324.899 6.77333 324.892 6.86667 324.885 6.98C324.885 7.09333 324.885 7.21333 324.885 7.34C324.885 7.46667 324.885 7.59 324.885 7.71C324.892 7.82333 324.899 7.92333 324.905 8.01ZM335.176 7.08C336.062 7.30667 336.506 7.77667 336.506 8.49C336.506 8.73667 336.459 8.96 336.366 9.16C336.272 9.35333 336.139 9.52 335.966 9.66C335.799 9.8 335.596 9.90667 335.356 9.98C335.116 10.0533 334.852 10.09 334.566 10.09C333.832 10.09 333.239 9.90333 332.786 9.53C332.706 9.46333 332.659 9.37667 332.646 9.27C332.632 9.16333 332.652 9.07 332.706 8.99C332.772 8.90333 332.856 8.85 332.956 8.83C333.056 8.81 333.159 8.83667 333.266 8.91C333.352 8.97 333.436 9.03 333.516 9.09C333.602 9.14333 333.699 9.19 333.806 9.23C333.912 9.27 334.032 9.30333 334.166 9.33C334.299 9.35 334.456 9.36 334.636 9.36C334.976 9.36 335.239 9.28 335.426 9.12C335.612 8.96 335.706 8.76333 335.706 8.53C335.706 8.35667 335.642 8.21333 335.516 8.1C335.396 7.98 335.192 7.88333 334.906 7.81C334.819 7.79 334.749 7.77667 334.696 7.77C334.649 7.75667 334.602 7.74667 334.556 7.74C334.516 7.72667 334.466 7.71333 334.406 7.7C334.352 7.68667 334.279 7.66667 334.186 7.64C333.719 7.52 333.366 7.35 333.126 7.13C332.892 6.90333 332.776 6.6 332.776 6.22C332.776 5.98 332.819 5.76667 332.906 5.58C332.999 5.38667 333.129 5.22333 333.296 5.09C333.462 4.95667 333.659 4.85333 333.886 4.78C334.119 4.70667 334.372 4.67 334.646 4.67C334.932 4.67 335.202 4.71333 335.456 4.8C335.716 4.88 335.922 4.98 336.076 5.1C336.176 5.18 336.222 5.27667 336.216 5.39C336.216 5.50333 336.186 5.59333 336.126 5.66C336.059 5.73333 335.976 5.77333 335.876 5.78C335.776 5.78667 335.679 5.76333 335.586 5.71C335.426 5.61667 335.266 5.54333 335.106 5.49C334.952 5.43667 334.789 5.41 334.616 5.41C334.262 5.41 333.999 5.48 333.826 5.62C333.652 5.75333 333.566 5.94333 333.566 6.19C333.566 6.35 333.619 6.48667 333.726 6.6C333.839 6.70667 334.046 6.8 334.346 6.88C334.506 6.92667 334.662 6.96667 334.816 7C334.976 7.03333 335.096 7.06 335.176 7.08ZM342.239 8.1C342.185 8.72667 341.972 9.21667 341.599 9.57C341.225 9.91667 340.705 10.09 340.039 10.09C339.785 10.09 339.539 10.0567 339.299 9.99C339.065 9.92333 338.862 9.85 338.689 9.77V11.52C338.689 11.6333 338.649 11.73 338.569 11.81C338.495 11.8967 338.402 11.94 338.289 11.94C338.175 11.94 338.079 11.8967 337.999 11.81C337.919 11.73 337.879 11.6333 337.879 11.52V5.59C337.879 5.52333 337.889 5.46667 337.909 5.42C337.929 5.37333 337.972 5.32667 338.039 5.28C338.099 5.23333 338.195 5.17667 338.329 5.11C338.462 5.04333 338.619 4.97667 338.799 4.91C338.979 4.84333 339.175 4.78667 339.389 4.74C339.609 4.69333 339.835 4.67 340.069 4.67C340.722 4.67 341.232 4.85333 341.599 5.22C341.972 5.58 342.185 6.07 342.239 6.69C342.245 6.77667 342.249 6.88333 342.249 7.01C342.255 7.13667 342.259 7.26667 342.259 7.4C342.259 7.52667 342.255 7.65333 342.249 7.78C342.249 7.90667 342.245 8.01333 342.239 8.1ZM341.419 6.75C341.339 5.87 340.885 5.43 340.059 5.43C339.932 5.43 339.799 5.44333 339.659 5.47C339.525 5.49667 339.395 5.53 339.269 5.57C339.142 5.61 339.029 5.65667 338.929 5.71C338.829 5.75667 338.749 5.8 338.689 5.84V8.96C338.742 8.99333 338.815 9.03333 338.909 9.08C339.002 9.12 339.105 9.16 339.219 9.2C339.339 9.23333 339.465 9.26333 339.599 9.29C339.739 9.31667 339.879 9.33 340.019 9.33C340.479 9.33 340.819 9.22333 341.039 9.01C341.259 8.79 341.385 8.47333 341.419 8.06C341.425 7.98667 341.429 7.89333 341.429 7.78C341.435 7.66667 341.439 7.54667 341.439 7.42C341.439 7.29333 341.435 7.17333 341.429 7.06C341.429 6.94 341.425 6.83667 341.419 6.75ZM347.967 7.14C347.967 7.31333 347.921 7.45333 347.827 7.56C347.734 7.66667 347.584 7.72 347.377 7.72H344.387V7.88C344.387 8.35333 344.524 8.71667 344.797 8.97C345.077 9.22333 345.437 9.35 345.877 9.35C346.057 9.35 346.247 9.32667 346.447 9.28C346.654 9.23333 346.871 9.17 347.097 9.09C347.184 9.05667 347.264 9.04333 347.337 9.05C347.411 9.05667 347.471 9.07667 347.517 9.11C347.571 9.14333 347.611 9.18667 347.637 9.24C347.664 9.29333 347.677 9.35 347.677 9.41C347.677 9.47667 347.661 9.54 347.627 9.6C347.601 9.66 347.544 9.71667 347.457 9.77C347.377 9.81667 347.274 9.86 347.147 9.9C347.027 9.94 346.894 9.97333 346.747 10C346.607 10.0267 346.461 10.0467 346.307 10.06C346.154 10.08 346.007 10.09 345.867 10.09C345.521 10.09 345.211 10.04 344.937 9.94C344.664 9.83333 344.431 9.68667 344.237 9.5C344.044 9.30667 343.894 9.08 343.787 8.82C343.681 8.55333 343.617 8.26 343.597 7.94C343.584 7.74667 343.577 7.53667 343.577 7.31C343.584 7.08333 343.594 6.89333 343.607 6.74C343.634 6.42 343.707 6.13333 343.827 5.88C343.947 5.62 344.104 5.4 344.297 5.22C344.491 5.04 344.714 4.90333 344.967 4.81C345.227 4.71667 345.511 4.67 345.817 4.67C346.144 4.67 346.441 4.72333 346.707 4.83C346.974 4.93667 347.201 5.08667 347.387 5.28C347.574 5.47333 347.717 5.70333 347.817 5.97C347.917 6.23 347.967 6.52 347.967 6.84V7.14ZM347.047 7.04C347.121 7.04 347.164 7 347.177 6.92C347.191 6.69333 347.167 6.48667 347.107 6.3C347.054 6.11333 346.967 5.95333 346.847 5.82C346.727 5.68667 346.581 5.58333 346.407 5.51C346.234 5.43667 346.041 5.4 345.827 5.4C345.334 5.4 344.967 5.55 344.727 5.85C344.487 6.14333 344.374 6.54 344.387 7.04H347.047ZM353.69 7.14C353.69 7.31333 353.643 7.45333 353.55 7.56C353.457 7.66667 353.307 7.72 353.1 7.72H350.11V7.88C350.11 8.35333 350.247 8.71667 350.52 8.97C350.8 9.22333 351.16 9.35 351.6 9.35C351.78 9.35 351.97 9.32667 352.17 9.28C352.377 9.23333 352.593 9.17 352.82 9.09C352.907 9.05667 352.987 9.04333 353.06 9.05C353.133 9.05667 353.193 9.07667 353.24 9.11C353.293 9.14333 353.333 9.18667 353.36 9.24C353.387 9.29333 353.4 9.35 353.4 9.41C353.4 9.47667 353.383 9.54 353.35 9.6C353.323 9.66 353.267 9.71667 353.18 9.77C353.1 9.81667 352.997 9.86 352.87 9.9C352.75 9.94 352.617 9.97333 352.47 10C352.33 10.0267 352.183 10.0467 352.03 10.06C351.877 10.08 351.73 10.09 351.59 10.09C351.243 10.09 350.933 10.04 350.66 9.94C350.387 9.83333 350.153 9.68667 349.96 9.5C349.767 9.30667 349.617 9.08 349.51 8.82C349.403 8.55333 349.34 8.26 349.32 7.94C349.307 7.74667 349.3 7.53667 349.3 7.31C349.307 7.08333 349.317 6.89333 349.33 6.74C349.357 6.42 349.43 6.13333 349.55 5.88C349.67 5.62 349.827 5.4 350.02 5.22C350.213 5.04 350.437 4.90333 350.69 4.81C350.95 4.71667 351.233 4.67 351.54 4.67C351.867 4.67 352.163 4.72333 352.43 4.83C352.697 4.93667 352.923 5.08667 353.11 5.28C353.297 5.47333 353.44 5.70333 353.54 5.97C353.64 6.23 353.69 6.52 353.69 6.84V7.14ZM352.77 7.04C352.843 7.04 352.887 7 352.9 6.92C352.913 6.69333 352.89 6.48667 352.83 6.3C352.777 6.11333 352.69 5.95333 352.57 5.82C352.45 5.68667 352.303 5.58333 352.13 5.51C351.957 5.43667 351.763 5.4 351.55 5.4C351.057 5.4 350.69 5.55 350.45 5.85C350.21 6.14333 350.097 6.54 350.11 7.04H352.77ZM355.053 6.66C355.106 6.03333 355.309 5.54667 355.663 5.2C356.016 4.84667 356.513 4.67 357.153 4.67C357.426 4.67 357.689 4.70333 357.943 4.77C358.196 4.83667 358.413 4.91 358.593 4.99V3.31C358.593 3.19667 358.629 3.1 358.703 3.02C358.783 2.93333 358.879 2.89 358.993 2.89C359.113 2.89 359.209 2.93333 359.283 3.02C359.363 3.1 359.403 3.19667 359.403 3.31V9.16C359.403 9.23333 359.393 9.29333 359.373 9.34C359.353 9.38667 359.306 9.43667 359.233 9.49C359.173 9.53 359.079 9.58667 358.953 9.66C358.826 9.72667 358.673 9.79333 358.493 9.86C358.319 9.92 358.126 9.97333 357.913 10.02C357.706 10.0667 357.489 10.09 357.263 10.09C356.596 10.09 356.073 9.91 355.693 9.55C355.319 9.18333 355.106 8.69 355.053 8.07C355.046 7.98333 355.039 7.88 355.033 7.76C355.033 7.63333 355.033 7.50333 355.033 7.37C355.033 7.23667 355.033 7.11 355.033 6.99C355.039 6.86333 355.046 6.75333 355.053 6.66ZM355.863 8.01C355.943 8.89 356.413 9.33 357.273 9.33C357.393 9.33 357.519 9.31667 357.653 9.29C357.786 9.26333 357.913 9.23 358.033 9.19C358.153 9.15 358.263 9.10667 358.363 9.06C358.463 9.00667 358.539 8.96 358.593 8.92V5.78C358.473 5.70667 358.283 5.63 358.023 5.55C357.763 5.47 357.483 5.43 357.183 5.43C356.749 5.43 356.429 5.54 356.223 5.76C356.016 5.97333 355.896 6.28667 355.863 6.7C355.856 6.77333 355.849 6.86667 355.843 6.98C355.843 7.09333 355.843 7.21333 355.843 7.34C355.843 7.46667 355.843 7.59 355.843 7.71C355.849 7.82333 355.856 7.92333 355.863 8.01ZM367.173 5.67C367.166 5.64333 367.149 5.63 367.123 5.63C367.089 5.63 367.073 5.64333 367.073 5.67L366.053 9.49C365.999 9.70333 365.909 9.86333 365.783 9.97C365.656 10.07 365.506 10.12 365.333 10.12C365.159 10.12 365.003 10.07 364.863 9.97C364.729 9.87 364.636 9.71333 364.583 9.5L363.423 5.3C363.383 5.14667 363.399 5.01333 363.473 4.9C363.546 4.78 363.653 4.72 363.793 4.72C363.879 4.72 363.956 4.74667 364.023 4.8C364.089 4.84667 364.136 4.91667 364.163 5.01L365.293 9.23C365.306 9.26333 365.323 9.28 365.343 9.28C365.363 9.28 365.379 9.26333 365.393 9.23L366.403 5.31C366.449 5.12333 366.539 4.98 366.673 4.88C366.806 4.77333 366.956 4.72 367.123 4.72C367.296 4.72 367.446 4.77333 367.573 4.88C367.699 4.98 367.789 5.12667 367.843 5.32L368.853 9.23C368.866 9.26333 368.883 9.28 368.903 9.28C368.923 9.28 368.939 9.26333 368.953 9.23L370.043 5.04C370.063 4.94 370.109 4.86333 370.183 4.81C370.256 4.75 370.343 4.72 370.443 4.72C370.589 4.72 370.696 4.78 370.763 4.9C370.836 5.02 370.853 5.15333 370.813 5.3L369.643 9.5C369.583 9.71333 369.486 9.87 369.353 9.97C369.226 10.07 369.076 10.12 368.903 10.12C368.729 10.12 368.576 10.07 368.443 9.97C368.309 9.87 368.216 9.71333 368.163 9.5L367.173 5.67ZM376.219 7.14C376.219 7.31333 376.172 7.45333 376.079 7.56C375.986 7.66667 375.836 7.72 375.629 7.72H372.639V7.88C372.639 8.35333 372.776 8.71667 373.049 8.97C373.329 9.22333 373.689 9.35 374.129 9.35C374.309 9.35 374.499 9.32667 374.699 9.28C374.906 9.23333 375.122 9.17 375.349 9.09C375.436 9.05667 375.516 9.04333 375.589 9.05C375.662 9.05667 375.722 9.07667 375.769 9.11C375.822 9.14333 375.862 9.18667 375.889 9.24C375.916 9.29333 375.929 9.35 375.929 9.41C375.929 9.47667 375.912 9.54 375.879 9.6C375.852 9.66 375.796 9.71667 375.709 9.77C375.629 9.81667 375.526 9.86 375.399 9.9C375.279 9.94 375.146 9.97333 374.999 10C374.859 10.0267 374.712 10.0467 374.559 10.06C374.406 10.08 374.259 10.09 374.119 10.09C373.772 10.09 373.462 10.04 373.189 9.94C372.916 9.83333 372.682 9.68667 372.489 9.5C372.296 9.30667 372.146 9.08 372.039 8.82C371.932 8.55333 371.869 8.26 371.849 7.94C371.836 7.74667 371.829 7.53667 371.829 7.31C371.836 7.08333 371.846 6.89333 371.859 6.74C371.886 6.42 371.959 6.13333 372.079 5.88C372.199 5.62 372.356 5.4 372.549 5.22C372.742 5.04 372.966 4.90333 373.219 4.81C373.479 4.71667 373.762 4.67 374.069 4.67C374.396 4.67 374.692 4.72333 374.959 4.83C375.226 4.93667 375.452 5.08667 375.639 5.28C375.826 5.47333 375.969 5.70333 376.069 5.97C376.169 6.23 376.219 6.52 376.219 6.84V7.14ZM375.299 7.04C375.372 7.04 375.416 7 375.429 6.92C375.442 6.69333 375.419 6.48667 375.359 6.3C375.306 6.11333 375.219 5.95333 375.099 5.82C374.979 5.68667 374.832 5.58333 374.659 5.51C374.486 5.43667 374.292 5.4 374.079 5.4C373.586 5.4 373.219 5.55 372.979 5.85C372.739 6.14333 372.626 6.54 372.639 7.04H375.299ZM382.556 9.33C382.816 9.33 383.063 9.26333 383.296 9.13C383.536 8.99 383.716 8.77333 383.836 8.48C383.883 8.38 383.936 8.31 383.996 8.27C384.063 8.23 384.14 8.21 384.226 8.21C384.333 8.21 384.423 8.25 384.496 8.33C384.57 8.40333 384.606 8.5 384.606 8.62C384.606 8.73333 384.563 8.87667 384.476 9.05C384.396 9.21667 384.27 9.37667 384.096 9.53C383.93 9.68333 383.716 9.81667 383.456 9.93C383.196 10.0367 382.893 10.09 382.546 10.09C382.226 10.09 381.93 10.04 381.656 9.94C381.39 9.83333 381.16 9.69 380.966 9.51C380.773 9.32333 380.62 9.10667 380.506 8.86C380.393 8.61333 380.326 8.35 380.306 8.07C380.3 7.97 380.293 7.86 380.286 7.74C380.286 7.61333 380.286 7.48667 380.286 7.36C380.286 7.23333 380.286 7.11 380.286 6.99C380.293 6.86333 380.3 6.75 380.306 6.65C380.326 6.35667 380.393 6.09 380.506 5.85C380.626 5.60333 380.783 5.39333 380.976 5.22C381.176 5.04667 381.41 4.91333 381.676 4.82C381.943 4.72 382.233 4.67 382.546 4.67C382.893 4.67 383.193 4.72667 383.446 4.84C383.706 4.94667 383.92 5.08 384.086 5.24C384.253 5.39333 384.376 5.55333 384.456 5.72C384.543 5.88667 384.586 6.02667 384.586 6.14C384.586 6.26 384.55 6.36 384.476 6.44C384.403 6.51333 384.313 6.55 384.206 6.55C384.126 6.55 384.053 6.53 383.986 6.49C383.92 6.45 383.863 6.38 383.816 6.28C383.703 5.98667 383.53 5.77333 383.296 5.64C383.063 5.5 382.816 5.43 382.556 5.43C382.136 5.43 381.8 5.54667 381.546 5.78C381.293 6.00667 381.15 6.31333 381.116 6.7C381.11 6.76667 381.103 6.85667 381.096 6.97C381.096 7.08333 381.096 7.20333 381.096 7.33C381.096 7.45667 381.096 7.58333 381.096 7.71C381.103 7.83 381.11 7.93333 381.116 8.02C381.15 8.39333 381.286 8.70667 381.526 8.96C381.773 9.20667 382.116 9.33 382.556 9.33ZM389.953 9.2C389.953 9.27333 389.939 9.33667 389.913 9.39C389.893 9.44333 389.849 9.49 389.783 9.53C389.716 9.58333 389.616 9.64333 389.483 9.71C389.356 9.77 389.203 9.83 389.023 9.89C388.849 9.94333 388.653 9.99 388.433 10.03C388.213 10.07 387.983 10.09 387.743 10.09C387.083 10.09 386.583 9.93333 386.243 9.62C385.909 9.3 385.743 8.89 385.743 8.39C385.743 8.17 385.783 7.96333 385.863 7.77C385.949 7.57 386.076 7.39667 386.243 7.25C386.409 7.10333 386.616 6.98667 386.863 6.9C387.116 6.81333 387.413 6.77 387.753 6.77C387.993 6.77 388.219 6.78667 388.433 6.82C388.653 6.85333 388.893 6.90667 389.153 6.98V6.57C389.153 6.16333 389.049 5.87 388.843 5.69C388.643 5.51 388.329 5.42 387.903 5.42C387.669 5.42 387.449 5.45 387.243 5.51C387.036 5.57 386.859 5.62667 386.713 5.68C386.539 5.74667 386.399 5.74333 386.293 5.67C386.186 5.59667 386.133 5.49667 386.133 5.37C386.133 5.29667 386.153 5.22667 386.193 5.16C386.233 5.09333 386.299 5.03667 386.393 4.99C386.546 4.91667 386.763 4.84667 387.043 4.78C387.329 4.70667 387.643 4.67 387.983 4.67C388.283 4.67 388.553 4.70667 388.793 4.78C389.033 4.85333 389.239 4.96667 389.413 5.12C389.586 5.26667 389.719 5.46 389.813 5.7C389.906 5.93333 389.953 6.21333 389.953 6.54V9.2ZM387.833 9.36C388.033 9.36 388.209 9.34667 388.363 9.32C388.523 9.28667 388.656 9.25 388.763 9.21C388.869 9.17 388.956 9.13 389.023 9.09C389.089 9.04333 389.133 9.01 389.153 8.99V7.68C388.899 7.61333 388.666 7.56 388.453 7.52C388.246 7.48 388.016 7.46 387.763 7.46C387.423 7.46 387.136 7.54 386.903 7.7C386.669 7.85333 386.553 8.07667 386.553 8.37C386.553 8.69 386.656 8.93667 386.863 9.11C387.076 9.27667 387.399 9.36 387.833 9.36ZM396.008 9.62C396.008 9.74 395.971 9.84 395.898 9.92C395.824 10 395.728 10.04 395.608 10.04C395.494 10.04 395.398 10 395.318 9.92C395.238 9.84 395.198 9.74 395.198 9.62V6.75C395.198 6.52333 395.161 6.32667 395.088 6.16C395.014 5.99333 394.918 5.85667 394.798 5.75C394.678 5.64333 394.534 5.56667 394.368 5.52C394.208 5.46667 394.038 5.44 393.858 5.44C393.578 5.44 393.311 5.47667 393.058 5.55C392.804 5.61667 392.611 5.69 392.478 5.77V9.62C392.478 9.74 392.438 9.84 392.358 9.92C392.284 10 392.191 10.04 392.078 10.04C391.964 10.04 391.868 10 391.788 9.92C391.708 9.84 391.668 9.74 391.668 9.62V5.57C391.668 5.47667 391.681 5.40667 391.708 5.36C391.741 5.30667 391.788 5.25667 391.848 5.21C391.914 5.15667 392.011 5.1 392.138 5.04C392.264 4.97333 392.411 4.91333 392.578 4.86C392.751 4.80667 392.944 4.76333 393.158 4.73C393.378 4.69 393.618 4.67 393.878 4.67C394.584 4.67 395.114 4.84667 395.468 5.2C395.828 5.54667 396.008 6.05 396.008 6.71V9.62ZM402.666 7.08C403.553 7.30667 403.996 7.77667 403.996 8.49C403.996 8.73667 403.949 8.96 403.856 9.16C403.763 9.35333 403.629 9.52 403.456 9.66C403.289 9.8 403.086 9.90667 402.846 9.98C402.606 10.0533 402.343 10.09 402.056 10.09C401.323 10.09 400.729 9.90333 400.276 9.53C400.196 9.46333 400.149 9.37667 400.136 9.27C400.123 9.16333 400.143 9.07 400.196 8.99C400.263 8.90333 400.346 8.85 400.446 8.83C400.546 8.81 400.649 8.83667 400.756 8.91C400.843 8.97 400.926 9.03 401.006 9.09C401.093 9.14333 401.189 9.19 401.296 9.23C401.403 9.27 401.523 9.30333 401.656 9.33C401.789 9.35 401.946 9.36 402.126 9.36C402.466 9.36 402.729 9.28 402.916 9.12C403.103 8.96 403.196 8.76333 403.196 8.53C403.196 8.35667 403.133 8.21333 403.006 8.1C402.886 7.98 402.683 7.88333 402.396 7.81C402.309 7.79 402.239 7.77667 402.186 7.77C402.139 7.75667 402.093 7.74667 402.046 7.74C402.006 7.72667 401.956 7.71333 401.896 7.7C401.843 7.68667 401.769 7.66667 401.676 7.64C401.209 7.52 400.856 7.35 400.616 7.13C400.383 6.90333 400.266 6.6 400.266 6.22C400.266 5.98 400.309 5.76667 400.396 5.58C400.489 5.38667 400.619 5.22333 400.786 5.09C400.953 4.95667 401.149 4.85333 401.376 4.78C401.609 4.70667 401.863 4.67 402.136 4.67C402.423 4.67 402.693 4.71333 402.946 4.8C403.206 4.88 403.413 4.98 403.566 5.1C403.666 5.18 403.713 5.27667 403.706 5.39C403.706 5.50333 403.676 5.59333 403.616 5.66C403.549 5.73333 403.466 5.77333 403.366 5.78C403.266 5.78667 403.169 5.76333 403.076 5.71C402.916 5.61667 402.756 5.54333 402.596 5.49C402.443 5.43667 402.279 5.41 402.106 5.41C401.753 5.41 401.489 5.48 401.316 5.62C401.143 5.75333 401.056 5.94333 401.056 6.19C401.056 6.35 401.109 6.48667 401.216 6.6C401.329 6.70667 401.536 6.8 401.836 6.88C401.996 6.92667 402.153 6.96667 402.306 7C402.466 7.03333 402.586 7.06 402.666 7.08ZM405.299 5.16C405.299 5.04667 405.336 4.95 405.409 4.87C405.489 4.78333 405.586 4.74 405.699 4.74C405.812 4.74 405.909 4.78333 405.989 4.87C406.069 4.95 406.109 5.04667 406.109 5.16V8.06C406.109 8.45333 406.226 8.76333 406.459 8.99C406.699 9.21 407.029 9.32 407.449 9.32C407.769 9.32 408.042 9.28333 408.269 9.21C408.496 9.13 408.682 9.04333 408.829 8.95V5.16C408.829 5.04667 408.866 4.95 408.939 4.87C409.019 4.78333 409.116 4.74 409.229 4.74C409.342 4.74 409.439 4.78333 409.519 4.87C409.599 4.95 409.639 5.04667 409.639 5.16V9.16C409.639 9.30667 409.582 9.41667 409.469 9.49C409.396 9.54333 409.296 9.60667 409.169 9.68C409.049 9.74667 408.902 9.81 408.729 9.87C408.562 9.93 408.372 9.98 408.159 10.02C407.946 10.0667 407.709 10.09 407.449 10.09C407.129 10.09 406.836 10.0467 406.569 9.96C406.309 9.86667 406.082 9.73333 405.889 9.56C405.702 9.38667 405.556 9.17333 405.449 8.92C405.349 8.66667 405.299 8.37667 405.299 8.05V5.16ZM415.823 8.1C415.769 8.72667 415.556 9.21667 415.183 9.57C414.809 9.91667 414.289 10.09 413.623 10.09C413.369 10.09 413.123 10.0567 412.883 9.99C412.649 9.92333 412.446 9.85 412.273 9.77V11.52C412.273 11.6333 412.233 11.73 412.153 11.81C412.079 11.8967 411.986 11.94 411.873 11.94C411.759 11.94 411.663 11.8967 411.583 11.81C411.503 11.73 411.463 11.6333 411.463 11.52V5.59C411.463 5.52333 411.473 5.46667 411.493 5.42C411.513 5.37333 411.556 5.32667 411.623 5.28C411.683 5.23333 411.779 5.17667 411.913 5.11C412.046 5.04333 412.203 4.97667 412.383 4.91C412.563 4.84333 412.759 4.78667 412.973 4.74C413.193 4.69333 413.419 4.67 413.653 4.67C414.306 4.67 414.816 4.85333 415.183 5.22C415.556 5.58 415.769 6.07 415.823 6.69C415.829 6.77667 415.833 6.88333 415.833 7.01C415.839 7.13667 415.843 7.26667 415.843 7.4C415.843 7.52667 415.839 7.65333 415.833 7.78C415.833 7.90667 415.829 8.01333 415.823 8.1ZM415.003 6.75C414.923 5.87 414.469 5.43 413.643 5.43C413.516 5.43 413.383 5.44333 413.243 5.47C413.109 5.49667 412.979 5.53 412.853 5.57C412.726 5.61 412.613 5.65667 412.513 5.71C412.413 5.75667 412.333 5.8 412.273 5.84V8.96C412.326 8.99333 412.399 9.03333 412.493 9.08C412.586 9.12 412.689 9.16 412.803 9.2C412.923 9.23333 413.049 9.26333 413.183 9.29C413.323 9.31667 413.463 9.33 413.603 9.33C414.063 9.33 414.403 9.22333 414.623 9.01C414.843 8.79 414.969 8.47333 415.003 8.06C415.009 7.98667 415.013 7.89333 415.013 7.78C415.019 7.66667 415.023 7.54667 415.023 7.42C415.023 7.29333 415.019 7.17333 415.013 7.06C415.013 6.94 415.009 6.83667 415.003 6.75ZM421.819 8.1C421.765 8.72667 421.552 9.21667 421.179 9.57C420.805 9.91667 420.285 10.09 419.619 10.09C419.365 10.09 419.119 10.0567 418.879 9.99C418.645 9.92333 418.442 9.85 418.269 9.77V11.52C418.269 11.6333 418.229 11.73 418.149 11.81C418.075 11.8967 417.982 11.94 417.869 11.94C417.755 11.94 417.659 11.8967 417.579 11.81C417.499 11.73 417.459 11.6333 417.459 11.52V5.59C417.459 5.52333 417.469 5.46667 417.489 5.42C417.509 5.37333 417.552 5.32667 417.619 5.28C417.679 5.23333 417.775 5.17667 417.909 5.11C418.042 5.04333 418.199 4.97667 418.379 4.91C418.559 4.84333 418.755 4.78667 418.969 4.74C419.189 4.69333 419.415 4.67 419.649 4.67C420.302 4.67 420.812 4.85333 421.179 5.22C421.552 5.58 421.765 6.07 421.819 6.69C421.825 6.77667 421.829 6.88333 421.829 7.01C421.835 7.13667 421.839 7.26667 421.839 7.4C421.839 7.52667 421.835 7.65333 421.829 7.78C421.829 7.90667 421.825 8.01333 421.819 8.1ZM420.999 6.75C420.919 5.87 420.465 5.43 419.639 5.43C419.512 5.43 419.379 5.44333 419.239 5.47C419.105 5.49667 418.975 5.53 418.849 5.57C418.722 5.61 418.609 5.65667 418.509 5.71C418.409 5.75667 418.329 5.8 418.269 5.84V8.96C418.322 8.99333 418.395 9.03333 418.489 9.08C418.582 9.12 418.685 9.16 418.799 9.2C418.919 9.23333 419.045 9.26333 419.179 9.29C419.319 9.31667 419.459 9.33 419.599 9.33C420.059 9.33 420.399 9.22333 420.619 9.01C420.839 8.79 420.965 8.47333 420.999 8.06C421.005 7.98667 421.009 7.89333 421.009 7.78C421.015 7.66667 421.019 7.54667 421.019 7.42C421.019 7.29333 421.015 7.17333 421.009 7.06C421.009 6.94 421.005 6.83667 420.999 6.75ZM423.865 2.9C423.978 2.9 424.075 2.94 424.155 3.02C424.235 3.1 424.275 3.19667 424.275 3.31V9.62C424.275 9.74 424.235 9.84 424.155 9.92C424.082 10 423.985 10.04 423.865 10.04C423.752 10.04 423.655 10 423.575 9.92C423.502 9.84 423.465 9.74 423.465 9.62V3.31C423.465 3.19667 423.502 3.1 423.575 3.02C423.655 2.94 423.752 2.9 423.865 2.9ZM425.461 5.33C425.401 5.17667 425.411 5.04333 425.491 4.93C425.571 4.81 425.688 4.75 425.841 4.75C425.941 4.75 426.018 4.77667 426.071 4.83C426.131 4.88333 426.181 4.95333 426.221 5.04L427.771 8.61C427.798 8.66333 427.825 8.66333 427.851 8.61L429.261 5.07C429.295 4.97667 429.345 4.9 429.411 4.84C429.478 4.78 429.561 4.75 429.661 4.75C429.815 4.75 429.931 4.81333 430.011 4.94C430.091 5.06 430.101 5.19 430.041 5.33L428.161 9.89C427.968 10.35 427.741 10.7467 427.481 11.08C427.228 11.42 426.991 11.6567 426.771 11.79C426.638 11.87 426.518 11.91 426.411 11.91C426.305 11.91 426.211 11.8733 426.131 11.8C426.051 11.7333 426.011 11.6433 426.011 11.53C426.011 11.4633 426.028 11.3967 426.061 11.33C426.095 11.2633 426.141 11.2133 426.201 11.18C426.415 11.06 426.628 10.8767 426.841 10.63C427.055 10.39 427.228 10.07 427.361 9.67L425.461 5.33ZM430.724 8.71C430.838 8.71 430.934 8.75333 431.014 8.84C431.094 8.92 431.134 9.01667 431.134 9.13V9.67C431.134 9.78333 431.094 9.88333 431.014 9.97C430.941 10.05 430.844 10.09 430.724 10.09C430.611 10.09 430.514 10.05 430.434 9.97C430.354 9.88333 430.314 9.78333 430.314 9.67V9.13C430.314 9.01667 430.354 8.92 430.434 8.84C430.514 8.75333 430.611 8.71 430.724 8.71Z" fill="white"/>
</g>
<defs>
<filter id="filter0_d" x="0.375977" y="2.89001" width="434.758" height="17.05" filterUnits="userSpaceOnUse" color-interpolation-filters="sRGB">
<feFlood flood-opacity="0" result="BackgroundImageFix"/>
<feColorMatrix in="SourceAlpha" type="matrix" values="0 0 0 0 0 0 0 0 0 0 0 0 0 0 0 0 0 0 127 0"/>
<feOffset dy="4"/>
<feGaussianBlur stdDeviation="2"/>
<feColorMatrix type="matrix" values="0 0 0 0 0 0 0 0 0 0 0 0 0 0 0 0 0 0 0.25 0"/>
<feBlend mode="normal" in2="BackgroundImageFix" result="effect1_dropShadow"/>
<feBlend mode="normal" in="SourceGraphic" in2="effect1_dropShadow" result="shape"/>
</filter>
</defs>
</svg>
