<svg width="300" height="48" viewBox="0 0 300 48" fill="none" xmlns="http://www.w3.org/2000/svg">
<g filter="url(#filter0_d)">
<path d="M4 20C4 8.95431 12.9543 0 24 0H276C287.046 0 296 8.95431 296 20V20C296 31.0457 287.046 40 276 40H24C12.9543 40 4 31.0457 4 20V20Z" fill="#FFE600"/>
<path d="M87.9148 22.08C88.4161 22.08 88.8588 21.9573 89.2428 21.712C89.6374 21.4667 89.9521 21.12 90.1868 20.672C90.2934 20.4907 90.4161 20.3413 90.5548 20.224C90.6934 20.096 90.8908 20.032 91.1468 20.032C91.4028 20.032 91.6428 20.128 91.8668 20.32C92.1014 20.512 92.2188 20.7573 92.2188 21.056C92.2188 21.152 92.2134 21.2427 92.2028 21.328C92.1921 21.4133 92.1601 21.52 92.1068 21.648C91.9361 22.0533 91.7014 22.416 91.4028 22.736C91.1148 23.0453 90.7841 23.312 90.4108 23.536C90.0481 23.7493 89.6534 23.9093 89.2268 24.016C88.8001 24.1333 88.3628 24.192 87.9148 24.192C87.2321 24.192 86.6081 24.0747 86.0428 23.84C85.4774 23.6053 84.9868 23.2853 84.5707 22.88C84.1548 22.4747 83.8188 21.9947 83.5628 21.44C83.3174 20.8853 83.1681 20.288 83.1148 19.648C83.0508 18.784 83.0508 17.936 83.1148 17.104C83.1681 16.464 83.3174 15.8667 83.5628 15.312C83.8188 14.7573 84.1548 14.2773 84.5707 13.872C84.9868 13.456 85.4774 13.1307 86.0428 12.896C86.6081 12.6613 87.2321 12.544 87.9148 12.544C88.3628 12.544 88.8001 12.6027 89.2268 12.72C89.6534 12.8267 90.0481 12.992 90.4108 13.216C90.7841 13.4293 91.1148 13.696 91.4028 14.016C91.7014 14.3253 91.9361 14.6827 92.1068 15.088C92.1601 15.216 92.1921 15.3227 92.2028 15.408C92.2134 15.4933 92.2188 15.584 92.2188 15.68C92.2188 15.9787 92.1014 16.224 91.8668 16.416C91.6428 16.608 91.4028 16.704 91.1468 16.704C90.8908 16.704 90.6881 16.64 90.5388 16.512C90.4001 16.3733 90.2828 16.224 90.1868 16.064C89.9521 15.616 89.6374 15.2693 89.2428 15.024C88.8588 14.7787 88.4161 14.656 87.9148 14.656C87.5308 14.656 87.1788 14.7253 86.8588 14.864C86.5494 15.0027 86.2828 15.1947 86.0588 15.44C85.8348 15.6747 85.6588 15.9573 85.5308 16.288C85.4028 16.6187 85.3228 16.9813 85.2908 17.376C85.2374 18.0587 85.2374 18.7413 85.2908 19.424C85.3441 20.224 85.6001 20.8693 86.0588 21.36C86.5174 21.84 87.1361 22.08 87.9148 22.08ZM96.4366 15.952C96.618 15.792 96.89 15.648 97.2526 15.52C97.626 15.392 98.026 15.328 98.4526 15.328C99.4766 15.328 100.271 15.6267 100.837 16.224C101.402 16.8107 101.685 17.68 101.685 18.832V22.944C101.685 23.264 101.583 23.536 101.381 23.76C101.178 23.9733 100.917 24.08 100.597 24.08C100.298 24.08 100.047 23.9733 99.8446 23.76C99.642 23.536 99.5406 23.264 99.5406 22.944V18.944C99.5406 18.4533 99.4126 18.08 99.1566 17.824C98.9006 17.5573 98.5486 17.424 98.1006 17.424C97.7593 17.424 97.4393 17.4933 97.1406 17.632C96.842 17.76 96.6073 17.9147 96.4366 18.096V22.976C96.4366 23.2853 96.3353 23.5467 96.1326 23.76C95.9406 23.9733 95.69 24.08 95.3806 24.08C95.082 24.08 94.826 23.9733 94.6126 23.76C94.3993 23.5467 94.2926 23.2853 94.2926 22.976V13.616C94.2926 13.3067 94.394 13.0453 94.5966 12.832C94.7993 12.6187 95.0553 12.512 95.3646 12.512C95.6633 12.512 95.914 12.6187 96.1166 12.832C96.33 13.0453 96.4366 13.3067 96.4366 13.616V15.952ZM111.071 19.392C111.071 19.7013 110.985 19.9573 110.815 20.16C110.644 20.3627 110.361 20.464 109.967 20.464H105.711V20.624C105.711 21.136 105.881 21.5253 106.223 21.792C106.564 22.048 107.007 22.176 107.551 22.176C107.839 22.176 108.127 22.144 108.415 22.08C108.703 22.016 108.985 21.9307 109.263 21.824C109.476 21.7493 109.668 21.7227 109.839 21.744C110.009 21.7653 110.153 21.8187 110.271 21.904C110.399 21.9893 110.495 22.1013 110.559 22.24C110.633 22.3787 110.671 22.5227 110.671 22.672C110.671 22.8213 110.633 22.976 110.559 23.136C110.484 23.296 110.34 23.44 110.127 23.568C109.828 23.7493 109.439 23.888 108.959 23.984C108.489 24.08 107.999 24.128 107.487 24.128C106.932 24.128 106.425 24.048 105.967 23.888C105.519 23.7173 105.124 23.4827 104.783 23.184C104.452 22.8853 104.185 22.528 103.983 22.112C103.791 21.696 103.673 21.2373 103.631 20.736C103.609 20.4267 103.599 20.08 103.599 19.696C103.599 19.3013 103.609 18.9813 103.631 18.736C103.673 18.2133 103.796 17.744 103.999 17.328C104.212 16.912 104.479 16.5547 104.799 16.256C105.129 15.9573 105.513 15.728 105.951 15.568C106.399 15.408 106.884 15.328 107.407 15.328C107.951 15.328 108.447 15.4187 108.895 15.6C109.343 15.7707 109.727 16.016 110.047 16.336C110.377 16.656 110.628 17.0453 110.799 17.504C110.98 17.9627 111.071 18.4747 111.071 19.04V19.392ZM108.831 19.008C108.948 19.008 109.007 18.944 109.007 18.816C109.028 18.3253 108.895 17.9307 108.607 17.632C108.329 17.3333 107.929 17.184 107.407 17.184C106.831 17.184 106.404 17.3493 106.127 17.68C105.849 18.0107 105.711 18.4533 105.711 19.008H108.831ZM116.612 22.08C117.326 22.08 117.86 21.7547 118.212 21.104C118.393 20.7733 118.676 20.608 119.06 20.608C119.369 20.608 119.62 20.7147 119.812 20.928C120.004 21.1413 120.1 21.4027 120.1 21.712C120.1 21.936 120.025 22.1867 119.876 22.464C119.726 22.7413 119.502 23.008 119.204 23.264C118.905 23.5093 118.532 23.7173 118.084 23.888C117.646 24.048 117.134 24.128 116.548 24.128C116.025 24.128 115.54 24.0427 115.092 23.872C114.644 23.7013 114.254 23.4667 113.924 23.168C113.593 22.8587 113.326 22.5013 113.124 22.096C112.921 21.68 112.798 21.2373 112.756 20.768C112.734 20.4373 112.724 20.0747 112.724 19.68C112.724 19.2747 112.734 18.912 112.756 18.592C112.788 18.112 112.905 17.6747 113.108 17.28C113.31 16.8747 113.577 16.528 113.908 16.24C114.249 15.952 114.644 15.728 115.092 15.568C115.54 15.408 116.025 15.328 116.548 15.328C117.134 15.328 117.646 15.4133 118.084 15.584C118.532 15.744 118.9 15.9467 119.188 16.192C119.486 16.4267 119.71 16.6827 119.86 16.96C120.009 17.2373 120.084 17.488 120.084 17.712C120.084 18.0107 119.988 18.2667 119.796 18.48C119.604 18.6933 119.353 18.8 119.044 18.8C118.649 18.8 118.366 18.64 118.196 18.32C117.854 17.6907 117.326 17.376 116.612 17.376C116.089 17.376 115.684 17.5147 115.396 17.792C115.108 18.0693 114.937 18.4427 114.884 18.912C114.873 19.008 114.862 19.1253 114.852 19.264C114.852 19.392 114.852 19.5253 114.852 19.664C114.852 19.8027 114.852 19.9413 114.852 20.08C114.862 20.2187 114.873 20.3413 114.884 20.448C114.937 20.9173 115.102 21.3067 115.38 21.616C115.668 21.9253 116.078 22.08 116.612 22.08ZM123.021 12.528C123.33 12.528 123.586 12.6347 123.789 12.848C123.992 13.0613 124.093 13.3227 124.093 13.632V18.656H124.269C124.44 18.656 124.578 18.6347 124.685 18.592C124.792 18.5493 124.92 18.448 125.069 18.288L127.549 15.728C127.666 15.6 127.794 15.504 127.933 15.44C128.082 15.376 128.232 15.344 128.381 15.344C128.69 15.344 128.941 15.4507 129.133 15.664C129.325 15.8773 129.426 16.1227 129.437 16.4C129.448 16.6773 129.352 16.912 129.149 17.104L126.605 19.616L129.069 22.176C129.282 22.4107 129.394 22.672 129.405 22.96C129.416 23.248 129.314 23.5093 129.101 23.744C129.005 23.8507 128.888 23.9307 128.749 23.984C128.621 24.0373 128.482 24.064 128.333 24.064C128.184 24.064 128.04 24.0373 127.901 23.984C127.762 23.92 127.634 23.824 127.517 23.696L125.069 21.056C124.92 20.8853 124.792 20.784 124.685 20.752C124.578 20.7093 124.45 20.688 124.301 20.688H124.093V22.976C124.093 23.2853 123.992 23.5467 123.789 23.76C123.586 23.9733 123.33 24.08 123.021 24.08C122.733 24.08 122.482 23.9733 122.269 23.76C122.056 23.536 121.949 23.2747 121.949 22.976V13.632C121.949 13.3227 122.05 13.0613 122.253 12.848C122.456 12.6347 122.712 12.528 123.021 12.528ZM142.294 22.496C142.294 22.6773 142.268 22.8267 142.214 22.944C142.161 23.0507 142.06 23.152 141.91 23.248C141.793 23.3227 141.633 23.4133 141.43 23.52C141.238 23.616 140.998 23.712 140.71 23.808C140.433 23.8933 140.113 23.968 139.75 24.032C139.388 24.096 138.982 24.128 138.534 24.128C137.958 24.128 137.457 24.0533 137.03 23.904C136.604 23.7547 136.252 23.552 135.974 23.296C135.697 23.04 135.489 22.7413 135.35 22.4C135.222 22.0587 135.158 21.696 135.158 21.312C135.158 20.9707 135.217 20.6453 135.334 20.336C135.462 20.016 135.66 19.7387 135.926 19.504C136.193 19.2587 136.534 19.0667 136.95 18.928C137.366 18.7787 137.868 18.704 138.454 18.704C138.806 18.704 139.11 18.7253 139.366 18.768C139.633 18.8107 139.921 18.8693 140.23 18.944V18.512C140.23 18.096 140.118 17.7867 139.894 17.584C139.67 17.3707 139.276 17.264 138.71 17.264C138.433 17.264 138.156 17.296 137.878 17.36C137.612 17.4133 137.377 17.472 137.174 17.536C136.95 17.6107 136.748 17.6427 136.566 17.632C136.385 17.6107 136.23 17.5627 136.102 17.488C135.974 17.4027 135.873 17.2907 135.798 17.152C135.734 17.0133 135.702 16.864 135.702 16.704C135.702 16.5227 135.75 16.3467 135.846 16.176C135.942 15.9947 136.129 15.8453 136.406 15.728C136.63 15.632 136.956 15.5413 137.382 15.456C137.809 15.3707 138.268 15.328 138.758 15.328C139.889 15.328 140.758 15.5893 141.366 16.112C141.985 16.624 142.294 17.4453 142.294 18.576V22.496ZM138.678 22.304C139.126 22.304 139.473 22.2507 139.718 22.144C139.974 22.0267 140.145 21.9413 140.23 21.888V20.448C139.953 20.3627 139.692 20.2987 139.446 20.256C139.212 20.2133 138.94 20.192 138.63 20.192C138.193 20.192 137.852 20.288 137.606 20.48C137.361 20.672 137.238 20.9227 137.238 21.232C137.238 21.584 137.366 21.8507 137.622 22.032C137.878 22.2133 138.23 22.304 138.678 22.304ZM150.528 15.376C150.731 15.376 150.912 15.424 151.072 15.52C151.232 15.6053 151.36 15.7227 151.456 15.872C151.563 16.0107 151.627 16.1813 151.648 16.384C151.669 16.576 151.643 16.7733 151.568 16.976L149.52 22.576C149.328 23.088 149.067 23.4773 148.736 23.744C148.405 24 148.027 24.128 147.6 24.128C147.184 24.128 146.811 24 146.48 23.744C146.16 23.488 145.909 23.1093 145.728 22.608L143.68 16.976C143.605 16.7627 143.579 16.56 143.6 16.368C143.632 16.176 143.696 16.0053 143.792 15.856C143.899 15.7067 144.032 15.5893 144.192 15.504C144.352 15.4187 144.533 15.376 144.736 15.376C144.992 15.376 145.211 15.456 145.392 15.616C145.584 15.7653 145.723 15.968 145.808 16.224L147.504 21.504C147.525 21.5787 147.568 21.616 147.632 21.616C147.685 21.616 147.723 21.5787 147.744 21.504L149.424 16.24C149.509 15.9733 149.653 15.7653 149.856 15.616C150.059 15.456 150.283 15.376 150.528 15.376ZM159.622 22.496C159.622 22.6773 159.596 22.8267 159.542 22.944C159.489 23.0507 159.388 23.152 159.238 23.248C159.121 23.3227 158.961 23.4133 158.758 23.52C158.566 23.616 158.326 23.712 158.038 23.808C157.761 23.8933 157.441 23.968 157.078 24.032C156.716 24.096 156.31 24.128 155.862 24.128C155.286 24.128 154.785 24.0533 154.358 23.904C153.932 23.7547 153.58 23.552 153.302 23.296C153.025 23.04 152.817 22.7413 152.678 22.4C152.55 22.0587 152.486 21.696 152.486 21.312C152.486 20.9707 152.545 20.6453 152.662 20.336C152.79 20.016 152.988 19.7387 153.254 19.504C153.521 19.2587 153.862 19.0667 154.278 18.928C154.694 18.7787 155.196 18.704 155.782 18.704C156.134 18.704 156.438 18.7253 156.694 18.768C156.961 18.8107 157.249 18.8693 157.558 18.944V18.512C157.558 18.096 157.446 17.7867 157.222 17.584C156.998 17.3707 156.604 17.264 156.038 17.264C155.761 17.264 155.484 17.296 155.206 17.36C154.94 17.4133 154.705 17.472 154.502 17.536C154.278 17.6107 154.076 17.6427 153.894 17.632C153.713 17.6107 153.558 17.5627 153.43 17.488C153.302 17.4027 153.201 17.2907 153.126 17.152C153.062 17.0133 153.03 16.864 153.03 16.704C153.03 16.5227 153.078 16.3467 153.174 16.176C153.27 15.9947 153.457 15.8453 153.734 15.728C153.958 15.632 154.284 15.5413 154.71 15.456C155.137 15.3707 155.596 15.328 156.086 15.328C157.217 15.328 158.086 15.5893 158.694 16.112C159.313 16.624 159.622 17.4453 159.622 18.576V22.496ZM156.006 22.304C156.454 22.304 156.801 22.2507 157.046 22.144C157.302 22.0267 157.473 21.9413 157.558 21.888V20.448C157.281 20.3627 157.02 20.2987 156.774 20.256C156.54 20.2133 156.268 20.192 155.958 20.192C155.521 20.192 155.18 20.288 154.934 20.48C154.689 20.672 154.566 20.9227 154.566 21.232C154.566 21.584 154.694 21.8507 154.95 22.032C155.206 22.2133 155.558 22.304 156.006 22.304ZM164.096 13.328C164.096 13.6373 163.984 13.9093 163.76 14.144C163.536 14.3787 163.27 14.496 162.96 14.496C162.63 14.496 162.358 14.3787 162.144 14.144C161.931 13.9093 161.824 13.6373 161.824 13.328C161.824 13.008 161.931 12.7413 162.144 12.528C162.358 12.304 162.63 12.192 162.96 12.192C163.27 12.192 163.536 12.304 163.76 12.528C163.984 12.7413 164.096 13.008 164.096 13.328ZM162.96 15.376C163.259 15.376 163.51 15.4827 163.712 15.696C163.926 15.9093 164.032 16.1707 164.032 16.48V22.976C164.032 23.2853 163.931 23.5467 163.728 23.76C163.526 23.9733 163.27 24.08 162.96 24.08C162.672 24.08 162.422 23.9733 162.208 23.76C161.995 23.5467 161.888 23.2853 161.888 22.976V16.48C161.888 16.1707 161.99 15.9093 162.192 15.696C162.395 15.4827 162.651 15.376 162.96 15.376ZM167.49 12.528C167.788 12.528 168.039 12.64 168.242 12.864C168.455 13.0773 168.562 13.3387 168.562 13.648V22.976C168.562 23.2853 168.46 23.5467 168.258 23.76C168.055 23.9733 167.799 24.08 167.49 24.08C167.202 24.08 166.951 23.9733 166.738 23.76C166.524 23.5467 166.418 23.2853 166.418 22.976V13.648C166.418 13.3387 166.519 13.0773 166.722 12.864C166.924 12.64 167.18 12.528 167.49 12.528ZM177.622 22.496C177.622 22.6773 177.596 22.8267 177.542 22.944C177.489 23.0507 177.388 23.152 177.238 23.248C177.121 23.3227 176.961 23.4133 176.758 23.52C176.566 23.616 176.326 23.712 176.038 23.808C175.761 23.8933 175.441 23.968 175.078 24.032C174.716 24.096 174.31 24.128 173.862 24.128C173.286 24.128 172.785 24.0533 172.358 23.904C171.932 23.7547 171.58 23.552 171.302 23.296C171.025 23.04 170.817 22.7413 170.678 22.4C170.55 22.0587 170.486 21.696 170.486 21.312C170.486 20.9707 170.545 20.6453 170.662 20.336C170.79 20.016 170.988 19.7387 171.254 19.504C171.521 19.2587 171.862 19.0667 172.278 18.928C172.694 18.7787 173.196 18.704 173.782 18.704C174.134 18.704 174.438 18.7253 174.694 18.768C174.961 18.8107 175.249 18.8693 175.558 18.944V18.512C175.558 18.096 175.446 17.7867 175.222 17.584C174.998 17.3707 174.604 17.264 174.038 17.264C173.761 17.264 173.484 17.296 173.206 17.36C172.94 17.4133 172.705 17.472 172.502 17.536C172.278 17.6107 172.076 17.6427 171.894 17.632C171.713 17.6107 171.558 17.5627 171.43 17.488C171.302 17.4027 171.201 17.2907 171.126 17.152C171.062 17.0133 171.03 16.864 171.03 16.704C171.03 16.5227 171.078 16.3467 171.174 16.176C171.27 15.9947 171.457 15.8453 171.734 15.728C171.958 15.632 172.284 15.5413 172.71 15.456C173.137 15.3707 173.596 15.328 174.086 15.328C175.217 15.328 176.086 15.5893 176.694 16.112C177.313 16.624 177.622 17.4453 177.622 18.576V22.496ZM174.006 22.304C174.454 22.304 174.801 22.2507 175.046 22.144C175.302 22.0267 175.473 21.9413 175.558 21.888V20.448C175.281 20.3627 175.02 20.2987 174.774 20.256C174.54 20.2133 174.268 20.192 173.958 20.192C173.521 20.192 173.18 20.288 172.934 20.48C172.689 20.672 172.566 20.9227 172.566 21.232C172.566 21.584 172.694 21.8507 172.95 22.032C173.206 22.2133 173.558 22.304 174.006 22.304ZM187.344 18.592C187.355 18.7413 187.36 18.912 187.36 19.104C187.371 19.296 187.376 19.4933 187.376 19.696C187.376 19.8987 187.371 20.1013 187.36 20.304C187.36 20.496 187.355 20.6613 187.344 20.8C187.302 21.2907 187.184 21.7387 186.992 22.144C186.8 22.5493 186.539 22.9013 186.208 23.2C185.888 23.488 185.504 23.7173 185.056 23.888C184.608 24.048 184.107 24.128 183.552 24.128C183.147 24.128 182.763 24.0907 182.4 24.016C182.048 23.9413 181.728 23.8507 181.44 23.744C181.152 23.6373 180.902 23.5307 180.688 23.424C180.475 23.3067 180.31 23.2053 180.192 23.12C180.043 23.024 179.942 22.9227 179.888 22.816C179.835 22.6987 179.808 22.5493 179.808 22.368V13.616C179.808 13.3067 179.91 13.0453 180.112 12.832C180.315 12.6187 180.571 12.512 180.88 12.512C181.179 12.512 181.43 12.6187 181.632 12.832C181.846 13.0453 181.952 13.3067 181.952 13.616V15.728C182.198 15.6213 182.491 15.5307 182.832 15.456C183.184 15.3707 183.52 15.328 183.84 15.328C184.896 15.328 185.718 15.6267 186.304 16.224C186.902 16.8107 187.248 17.6 187.344 18.592ZM185.2 20.448C185.211 20.3413 185.216 20.2187 185.216 20.08C185.216 19.9413 185.216 19.8027 185.216 19.664C185.216 19.5253 185.211 19.392 185.2 19.264C185.2 19.136 185.2 19.0293 185.2 18.944C185.168 18.4427 185.024 18.0587 184.768 17.792C184.523 17.5147 184.144 17.376 183.632 17.376C183.28 17.376 182.944 17.4293 182.624 17.536C182.315 17.632 182.091 17.7227 181.952 17.808V21.584C182.08 21.7013 182.299 21.8133 182.608 21.92C182.918 22.0267 183.216 22.08 183.504 22.08C184.027 22.08 184.427 21.9413 184.704 21.664C184.992 21.376 185.158 20.9707 185.2 20.448ZM191.69 13.328C191.69 13.6373 191.578 13.9093 191.354 14.144C191.13 14.3787 190.863 14.496 190.554 14.496C190.223 14.496 189.951 14.3787 189.738 14.144C189.525 13.9093 189.418 13.6373 189.418 13.328C189.418 13.008 189.525 12.7413 189.738 12.528C189.951 12.304 190.223 12.192 190.554 12.192C190.863 12.192 191.13 12.304 191.354 12.528C191.578 12.7413 191.69 13.008 191.69 13.328ZM190.554 15.376C190.853 15.376 191.103 15.4827 191.306 15.696C191.519 15.9093 191.626 16.1707 191.626 16.48V22.976C191.626 23.2853 191.525 23.5467 191.322 23.76C191.119 23.9733 190.863 24.08 190.554 24.08C190.266 24.08 190.015 23.9733 189.802 23.76C189.589 23.5467 189.482 23.2853 189.482 22.976V16.48C189.482 16.1707 189.583 15.9093 189.786 15.696C189.989 15.4827 190.245 15.376 190.554 15.376ZM195.083 12.528C195.382 12.528 195.633 12.64 195.835 12.864C196.049 13.0773 196.155 13.3387 196.155 13.648V22.976C196.155 23.2853 196.054 23.5467 195.851 23.76C195.649 23.9733 195.393 24.08 195.083 24.08C194.795 24.08 194.545 23.9733 194.331 23.76C194.118 23.5467 194.011 23.2853 194.011 22.976V13.648C194.011 13.3387 194.113 13.0773 194.315 12.864C194.518 12.64 194.774 12.528 195.083 12.528ZM200.768 13.328C200.768 13.6373 200.656 13.9093 200.432 14.144C200.208 14.3787 199.941 14.496 199.632 14.496C199.301 14.496 199.029 14.3787 198.816 14.144C198.603 13.9093 198.496 13.6373 198.496 13.328C198.496 13.008 198.603 12.7413 198.816 12.528C199.029 12.304 199.301 12.192 199.632 12.192C199.941 12.192 200.208 12.304 200.432 12.528C200.656 12.7413 200.768 13.008 200.768 13.328ZM199.632 15.376C199.931 15.376 200.181 15.4827 200.384 15.696C200.597 15.9093 200.704 16.1707 200.704 16.48V22.976C200.704 23.2853 200.603 23.5467 200.4 23.76C200.197 23.9733 199.941 24.08 199.632 24.08C199.344 24.08 199.093 23.9733 198.88 23.76C198.667 23.5467 198.56 23.2853 198.56 22.976V16.48C198.56 16.1707 198.661 15.9093 198.864 15.696C199.067 15.4827 199.323 15.376 199.632 15.376ZM207.842 23.792C207.564 23.92 207.244 24.0053 206.882 24.048C206.53 24.1013 206.199 24.128 205.89 24.128C205.388 24.128 204.956 24.048 204.594 23.888C204.242 23.728 203.943 23.5093 203.698 23.232C203.463 22.944 203.287 22.608 203.17 22.224C203.063 21.84 203.01 21.424 203.01 20.976V14.656C203.01 14.3467 203.111 14.0853 203.314 13.872C203.516 13.648 203.772 13.536 204.082 13.536C204.38 13.536 204.631 13.648 204.834 13.872C205.047 14.0853 205.154 14.3467 205.154 14.656V15.744H207.154C207.42 15.744 207.65 15.8347 207.842 16.016C208.044 16.1973 208.146 16.4267 208.146 16.704C208.146 16.9707 208.044 17.1947 207.842 17.376C207.65 17.5467 207.42 17.632 207.154 17.632H205.154V20.928C205.154 21.7173 205.5 22.112 206.194 22.112C206.375 22.112 206.546 22.096 206.706 22.064C206.876 22.0213 207.036 21.9787 207.186 21.936C207.591 21.84 207.911 21.8933 208.146 22.096C208.391 22.2987 208.514 22.5493 208.514 22.848C208.514 23.0293 208.46 23.2053 208.354 23.376C208.258 23.536 208.087 23.6747 207.842 23.792ZM209.54 16.944C209.455 16.7413 209.423 16.544 209.444 16.352C209.465 16.16 209.524 15.9947 209.62 15.856C209.716 15.7067 209.844 15.5893 210.004 15.504C210.175 15.408 210.361 15.36 210.564 15.36C210.809 15.36 211.028 15.4293 211.22 15.568C211.412 15.7067 211.561 15.9147 211.668 16.192L213.428 20.736C213.449 20.8 213.481 20.832 213.524 20.832C213.545 20.832 213.561 20.832 213.572 20.832C213.583 20.8213 213.599 20.7893 213.62 20.736L215.284 16.192C215.487 15.6373 215.855 15.36 216.388 15.36C216.591 15.36 216.777 15.408 216.948 15.504C217.119 15.5893 217.252 15.7067 217.348 15.856C217.444 16.0053 217.497 16.176 217.508 16.368C217.529 16.56 217.497 16.7573 217.412 16.96L214.42 23.92C214.079 24.7093 213.716 25.3493 213.332 25.84C212.948 26.3413 212.601 26.6933 212.292 26.896C212.175 26.9813 212.036 27.0507 211.876 27.104C211.716 27.168 211.561 27.2 211.412 27.2C211.124 27.2 210.873 27.1093 210.66 26.928C210.447 26.7467 210.34 26.5013 210.34 26.192C210.34 25.8507 210.5 25.5627 210.82 25.328C211.065 25.1573 211.327 24.912 211.604 24.592C211.881 24.2827 212.111 23.872 212.292 23.36L209.54 16.944Z" fill="#3C3D41"/>
</g>
<defs>
<filter id="filter0_d" x="0" y="0" width="300" height="48" filterUnits="userSpaceOnUse" color-interpolation-filters="sRGB">
<feFlood flood-opacity="0" result="BackgroundImageFix"/>
<feColorMatrix in="SourceAlpha" type="matrix" values="0 0 0 0 0 0 0 0 0 0 0 0 0 0 0 0 0 0 127 0"/>
<feOffset dy="4"/>
<feGaussianBlur stdDeviation="2"/>
<feColorMatrix type="matrix" values="0 0 0 0 0 0 0 0 0 0 0 0 0 0 0 0 0 0 0.25 0"/>
<feBlend mode="normal" in2="BackgroundImageFix" result="effect1_dropShadow"/>
<feBlend mode="normal" in="SourceGraphic" in2="effect1_dropShadow" result="shape"/>
</filter>
</defs>
</svg>
